<svg width="24" height="24" viewBox="0 0 24 24" fill="none" xmlns="http://www.w3.org/2000/svg">
<path d="M12 24C18.6274 24 24 18.6274 24 12C24 5.37258 18.6274 0 12 0C5.37258 0 0 5.37258 0 12C0 18.6274 5.37258 24 12 24Z" fill="#FFE0B2"/>
<g clip-path="url(#clip0_5512_1574)">
<path d="M6.80457 7.09766L5.80664 7.59672V16.3558L6.80457 16.8519L6.81057 16.8447V7.10453L6.80457 7.09766Z" fill="#8C3123"/>
<path d="M12.145 15.5806L6.8042 16.8519V7.09766L12.145 8.34125V15.5806Z" fill="#E05243"/>
<path d="M9.73438 13.5902L11.9998 13.8786L12.014 13.8458L12.0267 10.1311L11.9998 10.1021L9.73438 10.3863V13.5902" fill="#8C3123"/>
<path d="M12 15.5949L17.1954 16.8546L17.2035 16.8416L17.2034 7.10637L17.1952 7.09766L12 8.35553V15.5949" fill="#8C3123"/>
<path d="M14.266 13.5902L12 13.8786V10.1021L14.266 10.3863V13.5902Z" fill="#E05243"/>
<path d="M14.2658 8.83717L11.9998 9.25016L9.73438 8.83717L11.9969 8.24414L14.2658 8.83717Z" fill="#5E1F18"/>
<path d="M14.2658 15.1354L11.9998 14.7197L9.73438 15.1354L11.997 15.767L14.2658 15.1354Z" fill="#F2B0A9"/>
<path d="M9.73438 8.83698L11.9998 8.27637L12.0181 8.27071V4.51515L11.9998 4.5L9.73438 5.63289V8.83698Z" fill="#8C3123"/>
<path d="M14.266 8.83698L12 8.27637V4.5L14.266 5.63289V8.83698Z" fill="#E05243"/>
<path d="M12 19.4723L9.73438 18.3398V15.1357L12 15.6962L12.0333 15.734L12.0243 19.4069L12 19.4723Z" fill="#8C3123"/>
<path d="M12 19.4723L14.2658 18.3398V15.1357L12 15.6961V19.4723V19.4723ZM17.1954 7.09766L18.1937 7.59672V16.3558L17.1954 16.8546V7.09766Z" fill="#E05243"/>
</g>
<defs>
<clipPath id="clip0_5512_1574">
<rect width="15" height="15" fill="white" transform="translate(4.5 4.5)"/>
</clipPath>
</defs>
</svg>
