<svg width="24" height="24" viewBox="0 0 24 24" fill="none" xmlns="http://www.w3.org/2000/svg">
<circle cx="12" cy="12" r="11.25" fill="#FFC107"/>
<path d="M5.85133 14.4004C6.74733 14.2421 7.48737 14.1111 7.49587 14.1093L7.51132 14.1061L6.66542 13.0999C6.20017 12.5465 5.81951 12.0916 5.81951 12.0889C5.81951 12.084 6.69298 9.67862 6.69789 9.67006C6.69953 9.6672 7.29395 10.6935 8.13881 12.1578C8.92978 13.5287 9.58189 14.659 9.58796 14.6696L9.59898 14.6889L6.91062 14.6885L4.22225 14.6882L5.85133 14.4004V14.4004ZM16.1609 14.1571C15.7517 14.1308 15.5137 13.8978 15.4506 13.4616C15.4338 13.3456 15.4337 13.3426 15.432 12.5894L15.4304 11.8604H15.6115H15.7926L15.794 12.5655C15.7953 13.201 15.7961 13.2755 15.8022 13.3202C15.8268 13.5017 15.8759 13.6237 15.9595 13.7113C16.0264 13.7814 16.1047 13.8224 16.2131 13.8442C16.2642 13.8545 16.4097 13.8545 16.4563 13.8442C16.5662 13.82 16.6543 13.7722 16.732 13.6946C16.8206 13.606 16.8861 13.4804 16.9178 13.3384L16.9285 13.2905L16.9296 12.5794L16.9308 11.8683H17.1157H17.3006V12.9862V14.1041H17.1176H16.9346V13.9267C16.9346 13.8062 16.9333 13.7498 16.9305 13.7507C16.9283 13.7515 16.9189 13.7659 16.9096 13.7827C16.8466 13.8977 16.7415 14.0029 16.6264 14.0662C16.4884 14.1422 16.35 14.1692 16.1609 14.1571V14.1571ZM20.3145 14.1553C20.1701 14.1444 20.018 14.0947 19.8936 14.0178C19.6316 13.8557 19.4766 13.5886 19.4312 13.2209C19.4155 13.0937 19.4136 12.9228 19.4267 12.8147C19.456 12.5731 19.5509 12.336 19.6861 12.1667C19.7207 12.1233 19.7993 12.0447 19.8427 12.01C19.9599 11.9165 20.097 11.851 20.2425 11.8192C20.3273 11.8006 20.4767 11.7919 20.5668 11.8003C20.7931 11.8213 21.0005 11.9278 21.1415 12.0955C21.2847 12.2659 21.3635 12.504 21.3735 12.7972C21.3751 12.8432 21.3755 12.9237 21.3744 12.9762L21.3724 13.0717L20.5797 13.0727L19.787 13.0737V13.1091C19.787 13.2168 19.8132 13.3394 19.8585 13.4438C19.8975 13.5338 19.9647 13.632 20.0197 13.6796C20.1325 13.7771 20.2705 13.8354 20.4216 13.8495C20.4776 13.8547 20.6203 13.8492 20.6841 13.8394C20.8662 13.8114 21.0393 13.74 21.1791 13.6352C21.1956 13.6229 21.2113 13.6113 21.2141 13.6096C21.2182 13.607 21.2192 13.6392 21.2191 13.7747L21.2189 13.943L21.1815 13.9661C21.0233 14.0639 20.8421 14.1267 20.6503 14.1503C20.5931 14.1573 20.383 14.1604 20.3145 14.1553L20.3145 14.1553ZM21.0044 12.736C21.0044 12.5556 20.9284 12.3552 20.8208 12.2521C20.744 12.1784 20.6512 12.1334 20.5409 12.1163C20.4887 12.1083 20.3787 12.1114 20.3237 12.1225C20.2074 12.146 20.1111 12.1971 20.0272 12.2801C19.9389 12.3673 19.8727 12.4733 19.831 12.5941C19.8161 12.6375 19.7985 12.7088 19.7931 12.7485L19.7905 12.7674H20.3974H21.0044V12.736ZM10.2521 14.0991C10.253 14.0964 10.5222 13.3892 10.8502 12.5277L11.4467 10.9613H11.6383H11.83L11.8459 11.0021C11.8945 11.1267 13.04 14.1007 13.04 14.1022C13.04 14.1032 12.9482 14.104 12.8361 14.104L12.6322 14.104L12.4671 13.6644L12.302 13.2249L11.6373 13.2249L10.9725 13.2249L10.9667 13.2398C10.9636 13.248 10.893 13.4458 10.81 13.6793L10.659 14.1039L10.4547 14.104C10.293 14.104 10.2507 14.103 10.2521 14.0991V14.0991ZM12.1807 12.8895C12.1807 12.8888 12.0696 12.5876 11.9338 12.2201C11.6797 11.5327 11.6655 11.4913 11.6455 11.381C11.636 11.3292 11.6313 11.3278 11.6257 11.375C11.6217 11.4088 11.6044 11.4843 11.591 11.5262C11.5844 11.547 11.47 11.861 11.3368 12.2239C11.2036 12.5869 11.0946 12.8854 11.0946 12.8873C11.0946 12.8892 11.339 12.8907 11.6377 12.8907C11.9363 12.8907 12.1807 12.8901 12.1807 12.8895V12.8895ZM13.1633 14.0468V13.9896L13.8256 13.0791L14.4879 12.1687L13.8883 12.1667L13.2886 12.1647L13.2876 12.0125L13.2865 11.8604H14.1538H15.0211V11.9118V11.9631L14.3588 12.8786C13.9944 13.382 13.6964 13.7948 13.6964 13.7959C13.6964 13.7969 13.9909 13.7978 14.3508 13.7978H15.0052V13.9509V14.1041H14.0843H13.1633V14.0468ZM18.0234 14.1014C18.0219 14.1 18.0207 13.5951 18.0207 12.9796V11.8604H18.2017H18.3827V12.0911C18.3827 12.218 18.3843 12.3218 18.3861 12.3218C18.388 12.3218 18.3968 12.3011 18.4057 12.2757C18.4464 12.1593 18.517 12.0506 18.6079 11.9642C18.6898 11.8864 18.7835 11.8398 18.8939 11.822C18.925 11.817 18.9512 11.8161 19.0133 11.8177C19.0912 11.8197 19.132 11.8254 19.1794 11.8409L19.1943 11.8458V12.0337V12.2216L19.1515 12.2001C19.076 12.1623 19.0014 12.1474 18.9118 12.152C18.8535 12.1551 18.8152 12.1625 18.7686 12.18C18.6727 12.216 18.5949 12.2796 18.5405 12.3663C18.4618 12.4919 18.4057 12.6533 18.3891 12.8017C18.3861 12.8283 18.3844 13.0451 18.3837 13.4725L18.3826 14.1041H18.2043C18.1062 14.1041 18.0248 14.1029 18.0234 14.1014V14.1014ZM2.625 14.0936C2.625 14.0921 3.02359 13.4002 3.51075 12.556L4.3965 11.021L5.42874 10.1547C5.99647 9.67826 6.4625 9.28786 6.46437 9.28713C6.46624 9.28644 6.45877 9.30523 6.44778 9.32892C6.43678 9.3526 5.93239 10.4345 5.32691 11.7331L4.22604 14.0941L3.42552 14.0951C2.98523 14.0957 2.625 14.095 2.625 14.0936V14.0936Z" fill="white"/>
</svg>
