<svg width="24" height="24" viewBox="0 0 24 24" fill="none" xmlns="http://www.w3.org/2000/svg">
<circle cx="12" cy="12" r="11.25" fill="#DBE8E6"/>
<path d="M5.34048 8.39063H16.4268C17.6485 8.39063 18.7395 7.83721 19.4715 6.97325C17.9445 5.01387 15.548 3.75 12.8514 3.75C9.54951 3.75 6.69587 5.6434 5.34048 8.39063Z" fill="#F0BF1A"/>
<path d="M15.4872 9.6797H4.83721C4.61912 10.416 4.5 11.1941 4.5 12C4.5 12.8059 4.61912 13.5841 4.83721 14.3203H15.4872C16.766 14.3203 17.8361 13.2891 17.8361 12C17.8361 10.7109 16.7922 9.6797 15.4872 9.6797Z" fill="#07A5DE"/>
<path d="M19.5 16.9909C18.7726 16.1464 17.6904 15.6094 16.479 15.6094H5.34049C6.69589 18.3567 9.54953 20.25 12.8514 20.25C15.5646 20.25 17.9746 18.971 19.5 16.9909Z" fill="#3EBEB0"/>
<path d="M4.83721 9.6797C4.61912 10.416 4.5 11.1941 4.5 12C4.5 12.8059 4.61912 13.5841 4.83721 14.3203H11.8074C11.9901 13.6242 12.0945 12.8508 12.0945 12C12.0945 11.1492 11.9901 10.3758 11.8074 9.6797H4.83721Z" fill="#231F20"/>
<path d="M8.6496 4.8586C7.24024 5.6836 6.06585 6.92107 5.33512 8.39065H11.4943C10.8679 6.97265 9.87621 5.78675 8.6496 4.8586Z" fill="#D7A229"/>
<path d="M8.91058 19.2703C10.1111 18.3164 11.0767 17.0531 11.677 15.6094H5.33513C6.11806 17.1563 7.3708 18.4453 8.91058 19.2703Z" fill="#019B8F"/>
</svg>
