<svg width="32" height="32" viewBox="0 0 32 32" fill="none" xmlns="http://www.w3.org/2000/svg">
<circle cx="16" cy="16" r="15" fill="#7259D4"/>
<path d="M23.5467 10.2337L19.9841 6.67122C19.8721 6.56008 19.7204 6.49814 19.5626 6.49903H10.0625C9.07874 6.49903 8.28125 7.29652 8.28125 8.2803V23.7179C8.28125 24.7017 9.07874 25.4992 10.0625 25.4992H21.9376C22.9214 25.4992 23.7189 24.7017 23.7189 23.7179V10.6553C23.7198 10.4975 23.6578 10.3458 23.5467 10.2337ZM22.5314 23.7179C22.5314 24.0458 22.2655 24.3117 21.9376 24.3117H10.0625C9.73457 24.3117 9.46876 24.0458 9.46876 23.7179V8.2803C9.46876 7.95236 9.73457 7.68654 10.0625 7.68654H18.9688V10.0616C18.9688 10.7174 19.5005 11.2491 20.1563 11.2491H22.5314V23.7179Z" fill="white"/>
<path d="M21.3438 20.749H20.1562V21.9365H21.3438V20.749Z" fill="white"/>
<path d="M21.3438 14.8115H10.6562V15.999H21.3438V14.8115Z" fill="white"/>
<path d="M21.3438 17.7803H10.6562V18.9678H21.3438V17.7803Z" fill="white"/>
<path d="M18.9688 20.749H10.6562V21.9365H18.9688V20.749Z" fill="white"/>
</svg>
