<svg width="32" height="32" viewBox="0 0 32 32" fill="none" xmlns="http://www.w3.org/2000/svg">
<circle cx="16" cy="16" r="15" fill="#FAF8E0"/>
<path d="M13.2305 11.4479L11.8017 11.68L10.498 12.2516L9.39065 12.9481L8.33686 14.234L7.7416 14.8645L7.16589 15.0768L7.0137 14.7046L7.27989 14.3204L7.33966 13.7785L7.51796 13.7857L7.7128 13.9635L7.66025 13.4114L7.44426 13.2665L7.45089 13.0562L6.93932 13.3456L6.4761 13.8922L6.37939 14.3807L6.57759 14.7719L6.76236 15.4364L7.1381 15.6143L7.53341 15.5949L7.90823 15.3771L7.65815 16.6452L7.90823 18.0561L7.63297 18.7076L6.73147 19.6789L6.89172 20.2592L7.31884 20.9316L8.12406 21.4983L8.55118 21.5568L9.02607 21.5729L8.72973 22.7891L9.81928 23.2355L11.1766 23.4142L11.6409 23.1106L11.6767 22.289L12.1947 21.4317L12.2304 20.753L13.4806 20.8423L14.6415 20.7352L13.4806 21.4317L13.6771 22.2712L14.4093 23.4142L15.1238 23.7178L15.6953 23.4856L15.9274 23.0213L17.1241 22.1104L17.3563 22.3068L19.2316 22.3783L19.6066 22.0747L19.6423 21.5388L19.5174 21.3068L19.428 19.86L18.8029 18.6098L18.9101 18.0561L19.2851 18.2526L20.3389 19.2349L20.8568 19.2707L21.4283 19.0385L21.9999 18.6098L22.2856 17.681L23.9645 17.7882L24.9826 17.3954L25.8041 16.6273L26.3935 15.52L26.5363 14.2162L26.4113 12.6981L26.0899 11.3408L25.7684 10.9122L25.322 10.7692L24.5361 11.6265L23.8217 11.8765L23.1965 10.8406L22.5714 10.2691L22.2321 10.0548L20.8746 8.9296L19.7853 8.34021L18.6957 8.25098L17.4277 8.46529L16.3204 8.87596L15.5523 9.50111L14.9451 10.2334L14.3201 10.412L13.2305 11.4479Z" fill="#FFFF00"/>
<path d="M9.08646 14.6714C7.8626 16.099 8.1345 17.8302 8.47365 19.5265C8.29266 19.0691 8.11159 18.6116 7.9306 18.1545C7.86386 17.7352 7.79712 17.3158 7.73047 16.8965C7.74952 16.4677 7.7685 16.039 7.78764 15.6103C7.95914 15.2006 8.13064 14.7909 8.30215 14.3812C8.55936 14 8.81665 13.6189 9.07395 13.2377C9.47413 12.9043 9.87438 12.5708 10.2746 12.2373C10.7128 12.0562 11.1511 11.8753 11.5894 11.6942C12.1039 11.6275 12.6184 11.5609 13.133 11.4941C12.6565 12.0372 12.1801 12.5803 11.7037 13.1234C10.5561 13.4956 9.87942 13.7463 9.08646 14.6714Z" fill="#FFFFCC"/>
<path d="M14.8483 10.3223C13.9975 11.1524 13.5327 11.7785 12.9912 12.7504C12.604 13.4458 12.1695 14.1154 11.7622 14.801C11.5563 15.148 11.5368 15.439 11.4752 15.8392C11.2752 15.601 11.0751 15.3628 10.875 15.1246C10.9704 14.8387 11.0656 14.5528 11.1608 14.267C11.4848 13.6858 11.8088 13.1045 12.1328 12.5233C12.8188 11.8468 13.5049 11.1704 14.1909 10.4939C14.41 10.4366 14.6292 10.3795 14.8483 10.3223Z" fill="#FFFFCC"/>
<path d="M19.0501 8.26367C18.3686 8.51912 17.2369 8.60332 17.1584 9.38545C17.1025 9.94093 17.2003 10.22 17.5351 10.8078C16.7081 9.95192 16.5036 10.0844 14.9053 10.3503C15.134 10.0264 15.3627 9.70243 15.5913 9.37848C15.9915 9.13067 16.3917 8.88295 16.7919 8.63522C17.3064 8.52088 17.821 8.40655 18.3355 8.29221C18.5737 8.28273 18.8119 8.27324 19.0501 8.26367Z" fill="#FFFFCC"/>
<path d="M20.9307 18.8437C21.1575 18.9837 21.1527 19.0852 21.1147 19.1812C21.2937 19.1096 21.4727 19.038 21.6516 18.9665C21.7676 18.8108 21.8834 18.6552 21.9994 18.4994C22.0855 18.2776 22.1715 18.0559 22.2576 17.834C22.1476 17.7513 22.0377 17.6686 21.9277 17.5859C21.4471 17.6472 20.9665 17.7086 20.4858 17.77C20.4501 17.8671 20.4143 17.9643 20.3784 18.0615C20.3887 18.1995 20.399 18.3376 20.4091 18.4756C20.4551 18.5575 20.5012 18.6392 20.5472 18.7211C20.6188 18.7568 20.6904 18.7927 20.762 18.8284C20.8183 18.8335 20.8745 18.8387 20.9307 18.8437Z" fill="#CCCC00"/>
<path d="M20.7963 16.3779C20.0735 16.5865 20.0791 16.644 19.8657 17.3611C20.1474 16.9091 20.3561 16.6809 20.7963 16.3779Z" fill="#CCCC00"/>
<path d="M25.6019 11.0127C25.4735 11.072 25.3483 11.1006 25.2681 11.2181C25.0951 11.4711 24.947 11.6839 24.6611 11.8615C24.517 11.951 24.3681 12.0089 24.2154 12.0566C24.0887 12.0959 24.0126 12.0607 23.9048 12.1383C23.9688 12.1493 24.0327 12.1606 24.0967 12.1717H24.5198C24.6936 12.0644 24.8675 11.957 25.0413 11.8497C25.1437 11.7423 25.2459 11.6349 25.3482 11.5275C25.4327 11.356 25.5173 11.1842 25.6019 11.0127Z" fill="#CCCC00"/>
<path d="M14.0889 12.616C13.8046 13.3941 13.5561 14.0611 13.1255 14.7655C13.6774 14.1708 14.012 13.6654 14.3281 12.993C14.4509 12.7319 14.4741 12.4254 14.8162 12.5393C14.8315 12.8002 14.8867 13.0609 14.902 13.3216C15.0868 11.9969 15.608 11.4429 16.8194 10.9287C16.4768 10.9697 16.1342 11.0106 15.7917 11.0514C15.4695 11.123 15.1474 11.1947 14.8252 11.2662C14.6667 11.4963 14.5082 11.7265 14.3498 11.9565C14.2628 12.1763 14.1759 12.3962 14.0889 12.616Z" fill="#CCCC00"/>
<path d="M16.436 12.5859C16.6973 13.8155 17.0735 14.9956 17.2368 16.2448C17.3429 17.0564 17.3545 17.4464 16.9462 18.1466C16.4999 18.1178 16.2228 18.1681 15.791 18.3096C14.0725 18.873 13.0868 19.7013 11.9287 18.0322C12.2984 18.2064 12.6681 18.3806 13.0378 18.5549C13.3013 18.5031 13.5648 18.4514 13.8283 18.3994C14.2937 18.1285 14.759 17.8575 15.2243 17.5866C15.5873 17.5149 15.9503 17.4433 16.3133 17.3717C16.4309 16.881 16.5485 16.3901 16.6662 15.8992C16.5792 15.2498 16.4922 14.6005 16.4053 13.9511C16.3952 13.6443 16.3849 13.3376 16.3747 13.0308C16.3952 12.8824 16.4157 12.7342 16.436 12.5859Z" fill="#CCCC00"/>
<path d="M19.3965 20.1937C19.2521 21.1927 19.729 21.7297 19.5315 22.0056C19.4756 22.0837 19.3999 22.22 19.3154 22.2575C19.0132 22.3909 18.5979 22.2324 18.5682 22.3105H17.5712C17.4382 22.2543 17.3053 22.198 17.1724 22.1418C17.3769 21.9014 17.5814 21.6611 17.7859 21.4208C17.9853 20.9863 18.1848 20.5517 18.3841 20.117C18.512 19.6773 18.6398 19.2376 18.7676 18.7979H18.9671C19.1102 19.2632 19.2534 19.7284 19.3965 20.1937Z" fill="#CCCC00"/>
<path d="M17.7207 17.2891C17.8017 17.7426 17.9424 17.8504 18.1557 18.2895C18.0137 19.0058 17.7856 19.8576 17.511 20.4896C17.3952 20.7561 17.3018 20.9031 17.0975 21.1091C16.7529 21.4572 16.4046 21.7602 16.0137 22.0619C15.7323 22.2788 15.536 22.1701 15.1888 22.1209C15.0412 22.3885 15.0005 22.5372 14.7287 22.6731C14.3108 22.8819 13.937 22.4318 13.6089 22.1669C13.8457 22.5367 14.0825 22.9065 14.3192 23.2764C14.4829 23.4298 14.6465 23.583 14.8101 23.7365C14.9481 23.7569 15.0862 23.7775 15.2243 23.798C15.4083 23.6855 15.5924 23.5729 15.7764 23.4604C15.8736 23.2764 15.9707 23.0923 16.0679 22.9083C16.2724 22.7548 16.477 22.6015 16.6814 22.448C16.932 22.2334 17.1826 22.0185 17.4331 21.8038C17.5917 21.5788 17.7501 21.3539 17.9086 21.1289C18.0518 20.863 18.1949 20.5971 18.338 20.3313C18.5222 19.7791 18.7062 19.2268 18.8904 18.6747C18.9057 18.465 18.9209 18.2554 18.9363 18.0457C18.7062 17.9435 18.4762 17.8411 18.246 17.7388C18.0773 17.5804 17.8894 17.4476 17.7207 17.2891Z" fill="#CCCC00"/>
<path d="M12.218 20.4848C12.9922 20.4848 13.8098 20.4418 14.5189 20.1166C14.7195 19.8156 14.9176 19.5697 15.1631 19.3037C14.9397 19.7257 14.8696 19.9643 14.8104 20.4388C14.7336 20.5512 14.657 20.6636 14.5803 20.7762C13.9973 20.7915 13.4145 20.8069 12.8316 20.8222C12.6423 20.8017 12.4532 20.7813 12.264 20.7609C12.2435 20.7403 12.2231 20.7199 12.2026 20.6995C12.2078 20.6279 12.213 20.5563 12.218 20.4848Z" fill="#CCCC00"/>
<path d="M12.1106 19.9481C12.0906 19.7666 12.0706 19.585 12.0505 19.4033C11.9183 20.1995 11.95 20.7331 11.5836 21.4463C11.3099 21.7634 10.9729 22.0519 10.5869 22.2064C10.6195 22.4019 10.6293 22.5242 10.6103 22.6675C10.5423 23.1832 9.51078 22.9554 9.08643 22.9348C9.76732 23.1102 10.448 23.2854 11.1288 23.4606C11.2823 23.3993 11.4356 23.338 11.589 23.2766C11.6403 22.9801 11.6914 22.6835 11.7425 22.387C11.8856 22.1211 12.0288 21.8551 12.172 21.5894C12.1975 21.4256 12.2231 21.2622 12.2487 21.0985C12.2026 20.715 12.1567 20.3315 12.1106 19.9481Z" fill="#CCCC00"/>
<path d="M10.96 15.4541C10.9387 15.8413 10.9137 16.0026 11.0843 16.3445C11.3014 16.779 11.5679 17.1874 11.8037 17.6169C11.8293 17.3305 11.8548 17.0442 11.8804 16.7579C11.5737 16.3232 11.2669 15.8887 10.96 15.4541Z" fill="#CCCC00"/>
<path d="M7.8114 18.3779C7.74491 18.5192 7.67859 18.6606 7.61211 18.8019C7.79486 19.4175 7.95738 19.8075 8.30534 20.3452C8.24473 20.5631 8.1994 20.6584 8.05996 20.836C7.75372 20.789 7.48174 20.7753 7.17139 20.7763C7.51397 21.0421 7.85656 21.3081 8.19915 21.5739C8.36779 21.5431 8.53661 21.5125 8.70534 21.4819C8.87399 21.3131 9.04281 21.1444 9.21154 20.9757C8.9712 20.6023 8.73086 20.2292 8.49061 19.8559C8.26412 19.3633 8.03772 18.8705 7.8114 18.3779Z" fill="#CCCC00"/>
<path d="M25.604 10.8086C25.8127 11.7472 26.0818 12.6134 26.0568 13.5748C26.0262 14.7543 25.7963 16.2441 24.7035 16.9553C23.4797 17.7519 22.043 17.3752 20.7002 17.0338C21.2474 17.2589 21.7945 17.4838 22.3415 17.7088C22.8528 17.7344 23.3642 17.76 23.8755 17.7854C24.2232 17.6832 24.5709 17.581 24.9185 17.4787C25.1895 17.2537 25.4606 17.0288 25.7315 16.8037C25.936 16.3743 26.1405 15.9448 26.3451 15.5153C26.4218 15.0193 26.4985 14.5233 26.5751 14.0274C26.5138 13.5416 26.4524 13.0558 26.3911 12.5701C26.2786 12.0895 26.166 11.6089 26.0536 11.1283C25.9038 11.0217 25.754 10.9151 25.604 10.8086Z" fill="#CCCC00"/>
<path d="M7.34045 13.6065C6.78489 13.9682 6.56663 14.1269 6.62758 14.7972C6.6829 14.9979 6.7383 15.1986 6.79363 15.3993C6.87212 15.4524 6.95052 15.5055 7.02893 15.5586C7.12589 15.5909 7.22276 15.6231 7.31972 15.6554C7.49508 15.614 7.67045 15.5724 7.84573 15.5309C7.9358 15.2516 8.02579 14.9725 8.1157 14.6933C7.86655 14.8156 7.61731 14.9379 7.36816 15.0602H7.19514C7.13059 14.961 7.06595 14.8618 7.00131 14.7626C7.0798 14.6471 7.15821 14.5319 7.2367 14.4165C7.27825 14.1973 7.31972 13.9781 7.36127 13.7589C7.41433 13.775 7.46738 13.7912 7.52044 13.8073C7.58507 13.8581 7.64963 13.9089 7.71427 13.9595C7.70503 13.8443 7.6958 13.7289 7.68657 13.6135C7.64275 13.5397 7.59884 13.4658 7.55502 13.3921C7.5112 13.355 7.46738 13.3182 7.42356 13.2812C7.39586 13.3897 7.36816 13.4982 7.34045 13.6065Z" fill="#CCCC00"/>
<path d="M19.8057 8.3252C20.2988 8.78312 20.9039 9.18112 21.2984 9.7407C21.451 9.95729 21.6206 10.0681 21.2958 10.3741C21.639 10.276 21.7665 10.2867 22.0412 10.3199C22.541 10.3805 23.0094 11.0909 23.0392 11.6C23.0333 11.6476 22.9004 11.7557 22.514 11.8624C22.5064 11.8772 22.2959 11.8336 22.3011 11.8478C22.3414 11.9577 22.395 11.9745 22.4769 12.0259C22.4947 12.1481 22.5061 12.3366 22.5894 12.4702C22.8325 12.4659 23.0702 12.4924 23.3083 12.5395C23.3883 12.6725 23.3763 12.8053 23.3696 12.9383C23.4616 12.923 23.5536 12.9077 23.6457 12.8924C23.6202 12.6827 23.5946 12.4731 23.5691 12.2635C23.6508 12.1254 23.7326 11.9873 23.8145 11.8494C23.6968 11.5833 23.5792 11.3176 23.4616 11.0516C23.2367 10.8369 23.0118 10.6221 22.7867 10.4074C22.7651 10.4063 22.7433 10.4052 22.7218 10.4041C22.4687 10.2488 22.2158 10.0936 21.9628 9.93831C21.5501 9.60068 21.1375 9.26313 20.7248 8.9255C20.4184 8.72537 20.1121 8.52532 19.8057 8.3252Z" fill="#CCCC00"/>
<path d="M20.6361 12.1045C20.61 12.15 20.5708 12.2227 20.5205 12.2731C20.7258 12.4673 20.8271 12.5974 20.9004 12.8722C20.6682 12.9874 20.436 13.1028 20.2039 13.218C20.0074 13.4063 19.8109 13.5947 19.6145 13.783C19.3559 13.6438 19.2915 13.537 19.1663 13.2715C19.0206 13.3101 18.8826 13.3472 18.7622 13.3031C18.8386 13.3037 18.8854 13.2846 18.9617 13.2374C19.0867 13.1076 19.2118 12.9777 19.3368 12.8478C19.5576 12.6806 19.7785 12.5133 19.9992 12.3461C20.1438 12.299 20.2883 12.2519 20.4328 12.2048C20.488 12.1821 20.5808 12.1272 20.6361 12.1045Z" fill="#CCCC00"/>
<path d="M21.2769 12.7979C20.5383 13.1956 19.8308 13.5956 19.4531 14.3509C19.4531 13.3922 20.4158 12.9701 21.2769 12.7979Z" fill="#CCCC00"/>
<path d="M19.3064 10.9111C18.7579 11.2851 18.3701 12.0399 18.4188 12.7754C18.2402 12.1385 18.3034 11.5367 18.852 11.0968C18.9446 11.0518 19.0371 11.0067 19.1297 10.9618C19.1887 10.945 19.2475 10.9281 19.3064 10.9111Z" fill="#CCCC00"/>
<path d="M26.6881 12.6475C26.5885 12.0203 26.4236 11.4114 26.1948 10.9736C26.1669 10.9201 26.1246 10.8658 26.0722 10.8141C25.9586 10.702 25.7902 10.5959 25.6164 10.5361C25.4321 10.4727 25.2379 10.4598 25.0837 10.5404C25.0436 10.5614 25.0064 10.5884 24.9733 10.6221C24.8734 10.7233 24.7892 10.8462 24.7048 10.9694C24.611 11.1066 24.5166 11.2444 24.4037 11.3408C24.2728 11.4527 24.109 11.5206 23.9546 11.5827C23.8868 11.4189 23.8089 11.269 23.7209 11.1284C23.6153 10.96 23.4951 10.8023 23.3628 10.6446C23.2546 10.5159 23.1495 10.4192 23.0356 10.3325C22.9215 10.2455 22.8048 10.1722 22.6687 10.0871C22.304 9.85866 21.9935 9.58633 21.6768 9.30839C21.5329 9.18213 21.3875 9.0547 21.2453 8.93743C20.4911 8.31555 19.7876 8.01393 19.0351 7.96658C18.2879 7.91957 17.4988 8.12491 16.5671 8.51711C16.1175 8.70632 15.7836 8.92996 15.4927 9.19884C15.2148 9.45596 14.9789 9.75188 14.7196 10.0975C14.5687 10.1082 14.4351 10.1306 14.2986 10.1852C14.1483 10.2453 13.9969 10.3427 13.8156 10.5028C13.6869 10.6162 13.5638 10.7304 13.4447 10.8455C13.3332 10.9533 13.225 11.063 13.1183 11.1739C12.2701 11.3102 11.5791 11.4606 10.9602 11.7004C10.3274 11.9455 9.76945 12.2828 9.19643 12.7909C8.9623 12.9984 8.75965 13.2178 8.58227 13.4501C8.408 13.6784 8.25883 13.9184 8.12795 14.1715C8.01328 14.2983 7.89853 14.4264 7.7742 14.5383C7.65298 14.6475 7.52379 14.7394 7.37906 14.7951L7.37915 14.7952C7.29495 14.8276 7.26011 14.8466 7.25634 14.8453C7.25214 14.843 7.24979 14.8304 7.24383 14.8071C7.45176 14.6087 7.48442 14.3172 7.50364 14.0278C7.52857 14.0577 7.55258 14.0944 7.57743 14.1328C7.60488 14.1752 7.633 14.2189 7.66675 14.2615L7.80786 14.4395L7.85748 14.2174C7.89911 14.0313 7.93026 13.7834 7.88174 13.5685C7.85034 13.4291 7.78562 13.3048 7.67288 13.2167C7.68371 13.1885 7.69386 13.1625 7.70394 13.1369C7.73936 13.0464 7.7758 12.9534 7.80677 12.8656L7.86789 12.6915L7.68589 12.7231C7.4437 12.7651 6.92315 13.0512 6.55664 13.4316C6.42048 13.5729 6.30346 13.729 6.22665 13.8929C6.14673 14.0634 6.11097 14.2418 6.14194 14.4203C6.16897 14.5764 6.24704 14.7295 6.38891 14.8741C6.41477 14.9782 6.43861 15.0686 6.46413 15.1502C6.49334 15.2431 6.52482 15.3261 6.56419 15.4078C6.67089 15.6297 6.84097 15.7651 7.03774 15.8284C7.19598 15.8791 7.37092 15.8817 7.54251 15.8441C7.50901 16.0381 7.48786 16.2408 7.47963 16.4622C7.4688 16.7518 7.47938 17.0716 7.51128 17.4427C7.51825 17.5242 7.52874 17.6138 7.54234 17.7112C7.55409 17.7943 7.56811 17.8759 7.58322 17.9569C7.55116 18.0444 7.51892 18.132 7.48677 18.2195C7.43682 18.3553 7.38687 18.4913 7.33701 18.6271C7.22712 18.736 7.11724 18.8449 7.00743 18.9537C6.90493 19.055 6.80235 19.1567 6.69985 19.2583C6.69137 19.2667 6.65679 19.2999 6.62548 19.3301C6.41771 19.53 6.37657 19.5697 6.43559 19.9215C6.4716 20.1371 6.54254 20.3555 6.65326 20.5661C6.75526 20.7604 6.89209 20.9495 7.06771 21.1256C7.28689 21.3453 7.64602 21.6182 8.02201 21.761C8.23692 21.8427 8.45845 21.8826 8.6663 21.8493C8.65573 21.8812 8.6454 21.9131 8.63373 21.9454C8.60099 22.0358 8.56448 22.1263 8.5241 22.2149C8.26907 22.774 8.5309 23.066 8.93846 23.2518C9.14195 23.3446 9.38388 23.4076 9.60869 23.4662C9.65469 23.4781 9.70069 23.4902 9.75862 23.5058C10.0251 23.5778 10.4853 23.71 10.9056 23.7366C11.3643 23.7656 11.7781 23.6709 11.889 23.2591C11.9329 23.0959 11.9584 22.9708 11.9688 22.8484C11.9783 22.7348 11.9746 22.62 11.9614 22.4779C12.0922 22.1881 12.1477 22.1066 12.2433 21.9667C12.262 21.9391 12.2847 21.906 12.2915 21.8956C12.394 21.7437 12.4421 21.6358 12.4595 21.5143C12.4763 21.3971 12.4621 21.2804 12.4409 21.1018C12.4389 21.0848 12.4358 21.0601 12.4314 21.0273C12.6999 21.0618 12.9647 21.0802 13.228 21.0819C13.3616 21.0827 13.4952 21.0788 13.6287 21.0717C13.5946 21.0893 13.5611 21.1066 13.5245 21.1254C13.5083 21.1337 13.4916 21.1423 13.4749 21.151C13.1206 21.3332 13.1058 21.6783 13.2167 22.0333C13.3167 22.3534 13.5225 22.6803 13.6516 22.8792C13.923 23.2974 14.1819 23.6514 14.4959 23.8438C14.8251 24.0456 15.201 24.0693 15.6864 23.8066C15.9333 23.6729 16.0112 23.5367 16.1161 23.353C16.1481 23.2969 16.1836 23.2358 16.2229 23.1755C16.325 23.108 16.5789 22.8986 16.8281 22.6925C16.9129 22.6224 16.9977 22.5526 17.0934 22.4747C17.1593 22.5231 17.2389 22.5568 17.335 22.5797C17.4599 22.6096 17.6086 22.6231 17.7869 22.6358C17.9202 22.6457 18.3553 22.6453 18.6363 22.6452C18.7231 22.6452 18.7952 22.6452 18.8385 22.6455C19.1286 22.6473 19.3628 22.632 19.5397 22.5317C19.7284 22.4248 19.8402 22.2354 19.8646 21.8958C19.8753 21.7449 19.8772 21.6519 19.8563 21.5569C19.8368 21.4679 19.7986 21.3873 19.733 21.2693C19.729 21.1225 19.7251 20.9757 19.7212 20.829C19.7171 20.6733 19.7128 20.5174 19.7087 20.3618C19.7038 20.1782 19.6835 20.0291 19.6463 19.8824C19.6093 19.7367 19.5566 19.5965 19.486 19.4283C19.4382 19.3146 19.3994 19.2101 19.3614 19.1076L19.2596 19.1448L19.2753 19.139L19.3614 19.1076V19.1071C19.3008 18.9434 19.2409 18.7841 19.1571 18.6136C19.1626 18.5807 19.168 18.5454 19.1733 18.5076C19.2272 18.5596 19.2812 18.6116 19.3351 18.6635L19.5736 18.8933C19.7555 19.0685 19.9218 19.2279 20.1171 19.343C20.3191 19.4622 20.5463 19.5314 20.8404 19.5175C21.1483 19.503 21.4778 19.3733 21.7491 19.1731C22.0116 18.9794 22.2222 18.7181 22.3101 18.429C22.3355 18.3454 22.3609 18.2617 22.3862 18.1782C22.4064 18.1115 22.4268 18.0447 22.4471 17.978C22.8789 18.0512 23.3424 18.0748 23.7901 18.0279C24.222 17.9825 24.6394 17.8725 24.9993 17.6806C25.5284 17.3982 25.9251 16.9824 26.2101 16.4886L26.2103 16.4887C26.5289 15.9368 26.7073 15.2866 26.7751 14.6174C26.8294 14.0808 26.7998 13.3512 26.6881 12.6475ZM21.0933 17.1577C20.8444 17.074 20.6714 16.9518 20.4528 16.8141C20.5123 17.0823 20.5394 17.3659 20.4601 17.6337C20.3344 18.0586 20.1313 18.7536 20.7081 18.8819C20.9277 18.9307 21.0273 18.9236 21.3372 18.7637C21.0864 18.8206 20.9599 18.8066 20.7874 18.7746C20.6312 18.7459 20.5484 18.6467 20.5047 18.5297C20.5593 18.569 20.6483 18.5905 20.8005 18.6271C21.2281 18.7302 21.6356 18.5243 21.7153 18.2278C21.7617 18.0545 21.7538 17.9635 21.8523 17.7274C21.9408 17.7548 22.0323 17.7796 22.1261 17.8024C22.0732 17.975 22.0202 18.1479 21.9672 18.3206C21.8298 18.7689 21.2943 19.1304 20.8215 19.1222C20.3844 19.1144 20.1073 18.8407 19.8055 18.5722C19.5977 18.3871 19.3976 18.2103 19.1993 18.035C18.6554 17.8633 18.2193 17.6628 17.7145 17.289C18.0738 17.7112 18.3175 17.945 18.8186 18.1551C18.7457 18.8985 18.4874 19.4404 18.2671 20.1518C18.1674 20.4734 17.3805 21.7624 17.1624 21.888C17.0069 21.9776 16.0329 22.7979 15.8497 22.9062C15.7132 23.0875 15.5934 23.3379 15.3882 23.4463C14.7631 23.7768 14.3613 23.1439 14.025 22.6093C13.8718 22.3657 13.4464 21.6642 13.8172 21.4677C14.1678 21.2821 14.3642 21.1494 14.7219 20.9145C14.7744 21.0103 14.8646 21.1028 14.9234 21.1985C14.9104 21.0938 14.8974 20.9892 14.8843 20.8845C14.8608 20.6948 14.8617 20.5409 14.8768 20.3501C14.8915 20.1654 14.9059 19.9806 14.9204 19.7958C14.8666 19.9836 14.7591 20.1714 14.7053 20.3591C14.6839 20.4343 14.6661 20.495 14.6558 20.5512C13.8532 20.7152 13.0564 20.7255 12.2535 20.5823C12.2023 20.285 12.1399 19.9753 12.0876 19.7533C12.0718 20.0019 12.082 20.6894 12.0807 21.0744C12.0797 21.3725 12.0672 21.4746 11.9134 21.7284C11.7694 21.9658 11.7084 22.0198 11.5068 22.421C11.5236 22.6743 11.5239 22.8416 11.4567 23.0819C11.3448 23.4815 10.2161 23.1719 9.91845 23.0904C9.55177 22.99 8.79382 22.8409 8.98446 22.3522C9.15219 21.922 9.25855 21.4684 9.34048 20.8665C8.66874 19.8988 8.04409 18.5727 7.92421 17.3977C7.83112 16.4855 7.88694 15.924 8.08438 15.3659C8.39717 14.4817 8.83487 13.7163 9.53708 13.1C10.4843 12.2688 11.3697 11.9351 12.7561 11.724C12.4227 12.0973 12.0928 12.4919 11.7333 12.9151C11.3694 13.3435 11.1531 13.7761 10.922 14.2447C10.6028 14.8918 10.6097 15.1381 11.0328 15.7063C11.3975 16.196 11.5944 16.4163 11.7536 16.8955C11.6221 17.1665 11.5743 17.3956 11.5301 17.7657C11.9767 18.2538 12.3085 18.5883 12.7421 18.6913C13.1674 18.7923 13.5224 18.7728 13.903 18.5784C14.748 18.1463 15.5299 17.5884 16.4832 17.5654C16.9241 16.4812 16.8796 15.5753 16.6678 14.5263C16.5232 13.8099 16.4652 13.1316 16.4203 12.4012C16.2415 13.1534 16.2079 13.8148 16.3405 14.564C16.5005 15.4669 16.6248 16.4645 16.1799 17.258C15.318 17.3239 14.5793 17.8484 13.8024 18.2507C13.4901 18.4125 13.165 18.4283 12.8194 18.3334C12.4986 18.2453 12.2821 18.033 11.9364 17.6344C11.931 17.2341 12.0213 17.0494 12.2051 16.687C12.5004 16.1049 12.8263 15.5631 13.184 14.9904C12.746 15.519 12.3311 15.9607 11.9864 16.4921C11.8546 16.1168 11.6662 15.9262 11.3541 15.5035C11.0493 15.0906 11.0174 14.9099 11.2453 14.4321C11.4745 13.952 11.6688 13.53 12.0589 13.1088C12.7329 12.3809 13.3504 11.5709 14.0874 10.854C14.4877 10.4648 14.6502 10.4783 15.181 10.3978C15.6608 10.3251 16.1292 10.2333 16.6186 10.1196C16.1454 10.1637 15.6879 10.1799 15.2272 10.1913C15.2224 10.1915 15.2177 10.1917 15.2129 10.1918C15.6662 9.61286 15.9293 9.29025 16.6654 8.97033C18.478 8.18317 19.6297 8.09804 21.0535 9.29487C21.4225 9.60514 21.7448 9.90625 22.1189 10.1739C21.9833 10.1855 21.8663 10.2098 21.7117 10.2705C21.8999 10.2347 22.1172 10.2702 22.3126 10.3059C22.3674 10.3415 22.4237 10.3762 22.4814 10.4102C22.7456 10.5658 22.8955 10.6518 23.0742 10.9007C23.2629 11.1637 23.4203 11.4265 23.559 11.7162C23.4681 11.6837 23.3919 11.6563 23.324 11.6361C23.2739 11.6131 23.2195 11.5981 23.1619 11.5925C23.0476 11.5815 22.9383 11.6096 22.8472 11.6657C22.8436 11.6674 22.8399 11.6691 22.8362 11.6708C22.6901 11.7419 22.4638 11.823 22.3123 11.8476C22.3896 11.8743 22.5605 11.8843 22.6411 11.8524C22.6518 11.8481 22.6628 11.8448 22.6741 11.8421C22.6377 11.904 22.614 11.9742 22.6067 12.0502C22.597 12.1508 22.6175 12.2474 22.6607 12.3312C22.6609 12.3315 22.661 12.3317 22.6611 12.3321C22.6748 12.3643 22.6938 12.3939 22.7147 12.4153C22.6455 12.4409 22.5748 12.47 22.502 12.5016C22.8398 12.4502 23.1443 12.4414 23.474 12.4848C23.4957 12.5887 23.5176 12.6988 23.538 12.8108C23.4971 12.814 23.4564 12.8171 23.4155 12.8204C23.4123 12.8206 23.4088 12.821 23.4056 12.8213C23.2496 12.6966 23.0758 12.7175 22.8384 12.7718C22.1164 12.9364 22.2861 13.3415 21.954 13.952C22.2988 13.5304 22.2732 13.0893 22.8352 12.9562C22.9662 12.9252 23.0553 12.8864 23.144 12.8997C22.9845 12.98 22.8465 13.113 22.7918 13.2675C22.6375 13.7031 22.7332 14.0701 22.5638 14.477C22.7737 14.1132 22.7864 13.7583 22.9741 13.3756C23.0415 13.2382 23.2917 13.0182 23.4453 13.0148C23.4875 13.0138 23.5295 13.013 23.5717 13.012C23.6087 13.2541 23.6312 13.4946 23.6169 13.6939C23.5907 14.0578 23.4962 14.5979 23.4396 14.8046C23.6297 14.5602 23.7163 14.0425 23.7999 13.678C23.8868 13.2985 23.8648 12.8431 23.7887 12.4355C23.6843 11.8761 24.2603 11.9671 24.5948 11.7036C24.8406 11.5097 25.0099 11.2003 25.2353 10.981C25.4588 10.7637 25.8107 11.0831 25.8987 11.2956C26.28 12.2181 26.4537 13.6694 26.353 14.5994C26.24 15.6428 25.7359 16.782 24.8156 17.2957C23.6423 17.9506 22.2589 17.5505 21.0933 17.1577ZM19.4262 21.7923C19.3879 22.2229 19.2444 22.2514 18.8663 22.2447C18.6946 22.2417 18.0106 22.2386 17.837 22.2237C17.5918 22.2025 17.4541 22.1806 17.3791 22.1247C17.7644 21.8419 18.4191 20.6741 18.5467 20.2721C18.6817 19.8474 18.8295 19.4767 18.9394 19.0841C18.9899 19.2482 19.0299 19.4108 19.1034 19.5851C19.2262 19.8763 19.2862 20.0562 19.295 20.3686C19.3043 20.6982 19.3136 21.0278 19.3229 21.3574C19.4284 21.5422 19.4449 21.5816 19.4262 21.7923ZM7.83053 18.5308C8.07523 19.3771 8.49203 20.2089 8.95416 20.9081C8.95416 20.9121 8.95407 20.9161 8.95407 20.9203C8.92503 21.0405 8.89162 21.1575 8.82135 21.2516C8.49111 21.6935 7.65097 21.0448 7.40777 20.7967C7.142 20.5252 6.96403 20.2038 6.92164 19.9023C6.89083 19.6824 6.9208 19.6771 7.07417 19.5215C7.28093 19.3121 7.48794 19.1027 7.69462 18.8934C7.73987 18.7725 7.7852 18.6516 7.83053 18.5308ZM7.36328 13.208C7.30057 13.3426 7.25608 13.4446 7.22578 13.5496C7.09407 14.0045 7.28538 14.4106 6.87236 14.7403C7.06645 15.1319 7.05755 15.2881 7.50901 15.1072C7.68312 15.0373 7.82675 14.9394 7.95494 14.8237C7.89383 14.9817 7.83716 15.1447 7.78377 15.313C7.77487 15.3409 7.76639 15.3689 7.75817 15.3967C7.43531 15.5337 7.01071 15.6208 6.84819 15.2814C6.76928 15.1167 6.7247 14.9551 6.6672 14.747C6.13548 14.1961 6.93029 13.4688 7.36328 13.208ZM7.62461 13.7915C7.55896 13.7258 7.50641 13.6813 7.42163 13.691C7.42876 13.6353 7.43825 13.5817 7.45168 13.5312C7.45848 13.5053 7.4657 13.4799 7.47342 13.4543C7.58348 13.5185 7.61252 13.6347 7.62461 13.7915ZM23.5675 11.734C23.5876 11.7763 23.6073 11.8194 23.6267 11.863C23.6107 11.8747 23.5954 11.8871 23.5811 11.9002C23.5549 11.839 23.5169 11.7834 23.4698 11.7369C23.5015 11.7357 23.534 11.7347 23.5675 11.734ZM8.21736 14.2344L8.21727 14.2343L8.21736 14.2344ZM6.48671 14.8191H6.4868H6.48671ZM12.3046 20.9012H12.3048H12.3046ZM17.0967 22.3318H17.0966H17.0967ZM19.0444 18.6299H19.0445L19.0444 18.63V18.6299ZM7.4181 14.8965V14.8965L7.41802 14.8965L7.41449 14.8871L7.4181 14.8965ZM26.1148 16.4335L26.1173 16.435L26.1148 16.4335Z" fill="black"/>
<path d="M5.54202 14.7645C5.62664 13.8065 5.81292 13.3929 6.49356 12.6719C5.63982 13.2735 5.42676 13.5469 5.54202 14.7645Z" fill="black"/>
<path d="M5.32174 13.9819C5.41576 13.5508 5.5034 13.3881 5.76918 13.0342C5.33794 13.3355 5.2817 13.4592 5.32174 13.9819Z" fill="black"/>
<path d="M15.338 7.97168C14.8266 8.09491 14.7291 8.18952 14.5757 8.69085C14.8204 8.32375 14.9613 8.2043 15.338 7.97168Z" fill="black"/>
<path d="M16.1441 7.89844C15.1297 8.14709 14.8316 8.32388 14.4946 9.49955C14.9229 8.63851 15.2473 8.32144 16.1441 7.89844Z" fill="black"/>
<path d="M18.3293 12.1845C18.4374 11.7055 18.6295 11.2438 19.3735 10.8867C18.3873 11.1337 18.2025 11.5478 18.3293 12.1845Z" fill="black"/>
<path d="M24.6029 12.2173C25.1869 12.0091 25.4683 11.5397 25.6082 10.9873C25.3796 11.4503 25.0269 11.8374 24.5478 12.0746C24.2907 12.2018 24.1265 12.1574 23.8394 12.1302C24.1313 12.214 24.3163 12.3195 24.6029 12.2173Z" fill="black"/>
<path d="M20.6254 12.6872C20.5476 12.5241 20.4113 12.4072 20.2534 12.3494C20.3966 12.2729 20.5373 12.1926 20.6471 12.0928C20.3256 12.2416 19.9513 12.2053 19.6755 12.3916C19.4324 12.5557 19.0971 13.0759 18.8501 13.2964C19.029 13.227 19.2013 13.1069 19.3599 12.9803C19.3606 13.0744 19.3812 13.1697 19.4243 13.2601C19.4886 13.3947 19.5926 13.4977 19.7158 13.5621C19.6269 13.6792 19.5531 13.8103 19.5003 13.9557C19.9705 13.3985 20.6522 12.9777 21.2931 12.7977C21.114 12.7952 20.9018 12.8286 20.6858 12.8997C20.6779 12.8278 20.6582 12.756 20.6254 12.6872Z" fill="black"/>
<path d="M19.9486 16.8972C19.9257 17.0415 19.8944 17.2208 19.8716 17.3652C19.9326 17.2019 20.0061 17.0121 20.0772 16.8563C20.1526 16.6915 20.1949 16.676 20.3548 16.589C20.4681 16.5273 20.6739 16.4426 20.7873 16.3809C20.6707 16.4005 20.4616 16.4434 20.345 16.463C20.0335 16.5157 19.9968 16.5905 19.9486 16.8972Z" fill="black"/>
<path d="M14.6276 11.3261C14.266 11.6834 13.915 12.9097 13.8027 13.4002C13.9795 12.9927 14.4218 11.8527 14.7611 11.5626C14.8548 11.4825 14.9202 11.4333 14.9906 11.3975C14.7477 11.8047 14.7655 11.9061 14.8508 12.4517C14.9232 11.897 15.115 11.6827 15.4298 11.2688C15.7748 11.1822 16.0978 11.0785 16.4517 10.9404C16.0525 10.9856 15.6539 11.0269 15.2546 11.0647C14.9193 11.0965 14.8653 11.091 14.6276 11.3261Z" fill="black"/>
<path d="M19.5529 13.4142C19.487 13.2763 19.5459 13.1103 19.6841 13.0446C19.8223 12.9787 19.9886 13.0375 20.0545 13.1754C20.0608 13.1885 20.0658 13.202 20.0699 13.2154C19.9379 13.3134 19.817 13.4287 19.7155 13.5623C19.6472 13.5349 19.5867 13.4849 19.5529 13.4142Z" fill="#FFFFCC"/>
<path d="M22.6399 12.2196C22.651 12.1053 22.7483 12.0211 22.8625 12.0322C22.9766 12.0433 23.061 12.1453 23.05 12.2595C23.0475 12.2838 23.041 12.3066 23.0312 12.3276C22.9266 12.3454 22.8221 12.376 22.7144 12.4156C22.6694 12.3695 22.6336 12.2854 22.6399 12.2196Z" fill="#FFFFCC"/>
</svg>
