<svg width="24" height="24" viewBox="0 0 24 24" fill="none" xmlns="http://www.w3.org/2000/svg">
<circle cx="12" cy="12" r="11.25" fill="#FAF8E0"/>
<path fill-rule="evenodd" clip-rule="evenodd" d="M13.2167 6.04253C13.0692 5.63824 7.99104 3.66408 7.92632 3.88083C6.99386 4.1239 6.61437 5.19864 5.97294 5.8794L4.54853 5.79783C3.92108 6.60473 3.59181 7.42916 3.816 8.286C4.62022 9.37558 5.55379 10.3028 6.13567 11.6712C6.18166 12.3163 8.9277 11.7388 9.51628 11.6112C8.71225 12.1867 8.01208 13.0788 8.31296 15.6481C8.58765 16.8547 8.77556 18.2018 11.2118 19.5664C11.5325 19.746 12.1961 19.9533 12.6065 20.1044C12.9989 20.2844 13.4577 20.3583 14.7523 19.9625C15.5014 19.6396 16.3102 19.4451 17.0432 19.123L16.1621 19.1643C14.9488 19.1908 14.0119 19.2812 13.7232 18.9422L12.6065 17.0145L13.2575 15.75C14.1585 15.8424 14.4576 16.5731 15.2517 16.8513L16.1877 16.1579C18.9066 17.7627 19.988 15.1408 20.298 13.0988C20.2649 12.268 18.4991 13.3592 18.6061 12.9709C18.6476 12.0778 17.9196 10.9093 17.4493 9.99887L17.9936 7.8927C18.2406 7.6725 16.8501 5.32967 15.7147 5.03748C14.7185 4.78091 13.2168 6.04255 13.2168 6.04255L13.2167 6.04253Z" fill="#FDEE21"/>
<path fill-rule="evenodd" clip-rule="evenodd" d="M17.6834 10.5196C17.6929 10.7458 17.692 11.021 17.7139 11.1926C17.7101 11.3235 17.612 11.3286 17.5308 11.3557L18.0598 11.5495C18.1648 11.7262 18.2492 11.903 18.3345 12.0798C18.4334 12.5146 18.3594 12.527 18.2938 12.559C18.1018 12.561 17.9104 12.5613 17.7317 12.5233C17.8117 12.5656 17.8293 12.5964 17.8378 12.6505C17.8534 12.7503 17.7892 12.8866 17.6834 13.0179C17.8398 13.1047 18.1251 13.1896 18.337 13.2703L18.5787 12.7324C18.4693 11.9422 18.1374 11.214 17.6834 10.5195V10.5196ZM18.6708 13.1701C18.9642 13.2924 19.3696 13.2566 19.9316 12.9669C20.0152 12.9075 20.093 12.943 19.9434 13.0408C19.2063 13.7023 18.8535 13.3714 18.6708 13.1701H18.6708Z" fill="#C8C037"/>
<path fill-rule="evenodd" clip-rule="evenodd" d="M19.9878 12.8798C20.0749 13.0466 20.0221 13.1824 19.9928 13.3233C19.9018 14.0404 19.6784 14.6073 19.24 15.1996C17.8139 17.4923 16.3742 16.0578 15.2264 15.1241L14.7516 16.3138C14.7264 16.4181 14.6214 16.4993 15.3631 16.8258L16.1185 16.2922C18.9993 18.4842 21.0408 13.2241 19.9877 12.8798L19.9878 12.8798ZM15.5738 14.9285C15.3794 14.9424 14.801 15.1391 14.7752 15.253L15.0414 14.8564L15.5738 14.9285ZM15.1958 12.4974C15.2314 12.4974 15.4024 12.5433 15.384 12.5331C15.3578 12.5185 15.3811 12.7728 15.4349 12.9053L15.2263 13.3591C15.6258 12.8984 16.2576 12.929 16.844 12.8696L16.5642 12.6963C16.6128 12.5342 16.5556 12.4059 16.5286 12.268L15.1958 12.4974ZM16.1775 11.1309C15.7488 11.2623 15.3385 11.477 15.0631 11.9346C15.2732 11.1803 15.3161 11.2089 15.3839 11.1717C15.6778 11.0402 15.9185 11.1221 16.1775 11.1309Z" fill="#C8C037"/>
<path fill-rule="evenodd" clip-rule="evenodd" d="M13.8881 19.9726C13.3698 20.5445 12.2133 19.9293 11.2529 19.6157C8.81239 18.0638 8.33563 16.6029 8.30232 15.1697C8.17685 13.1168 8.80722 11.9239 9.60459 11.6415C9.07689 12.6588 8.83104 14.4848 9.07555 15.8427C9.27305 16.5982 9.27717 17.8723 10.5412 18.5543C11.1601 18.9028 10.9925 19.1741 11.411 19.5005C11.8697 19.8581 13.1486 20.1981 13.8879 19.9726L13.8881 19.9726ZM14.6624 10.4852C13.7849 9.24063 12.5505 8.77369 11.1589 8.72264C11.4378 8.63169 11.7167 8.58436 11.9957 8.44987C12.064 8.37811 12.0416 8.25181 12.016 8.12357C10.6763 7.77375 9.83077 7.34141 8.76045 6.94066L11.6497 7.63407C13.6008 7.70821 13.4334 8.18995 14.6623 10.4851L14.6624 10.4852ZM15.6019 9.88493C14.9534 8.95916 14.3245 7.83561 13.4709 7.12104C11.4099 6.1908 9.37111 5.49994 6.98193 4.87126L7.7445 3.89062C10.28 4.46938 12.6615 5.43786 14.7945 7.03458C15.1554 7.94713 15.3961 8.86088 15.6019 9.885V9.88493ZM16.9093 8.249C16.9093 8.249 16.5457 7.43333 16.3687 7.12189C15.9581 6.66684 15.7503 5.81885 14.9095 5.41929C15.1755 5.49109 15.3575 5.40554 15.9005 5.89781L16.7558 7.52022L16.9093 8.249ZM17.3616 9.66205C17.4454 8.95537 17.6046 7.82202 17.4219 7.37398L15.8894 5.33232C15.8046 5.25338 15.7435 5.14621 15.6769 5.06266C16.3968 5.24923 17.1485 5.74992 18.1622 7.72659L17.3616 9.66205Z" fill="#FCF6A0"/>
<path fill-rule="evenodd" clip-rule="evenodd" d="M14.3343 9.74488C14.0475 9.51894 13.7919 8.72051 13.3572 8.55469C12.9551 8.52103 12.8074 8.39447 12.2784 8.50223C12.4703 8.40611 12.6514 8.28307 12.8554 8.21723C12.9935 8.18462 13.1231 8.22075 13.2549 8.23892C13.2875 8.22352 13.3088 8.2044 13.3008 8.17548C12.7683 7.8464 11.6759 7.84171 10.9385 7.65386C11.7944 7.6825 12.7413 7.6351 13.3845 7.8415C13.9017 8.30052 14.0698 9.16495 14.3343 9.74501V9.74488ZM15.9025 5.89453C16.0212 5.90531 16.6602 6.91609 16.6902 7.08427C16.7433 7.45194 16.8744 7.8641 16.9096 8.2488C16.8044 7.87983 16.6897 7.51093 16.5463 7.14198C16.5042 7.04039 16.3984 6.8107 16.1039 6.48581C15.9667 6.25681 15.9373 6.07683 15.9025 5.89455L15.9025 5.89453ZM18.068 11.3998H17.7944L18.0966 11.4791L18.068 11.3998ZM16.2027 11.1269C15.9278 11.0931 15.6455 11.0886 15.3708 11.149C15.2587 11.2995 15.251 11.4526 15.202 11.5941C15.5362 11.2258 15.6688 11.2033 16.2027 11.1269L16.2027 11.1269ZM19.9521 13.0276C19.7989 13.1497 19.7838 13.2647 19.3314 13.4024C19.0016 13.4804 18.8152 13.3482 18.66 13.1704C18.8954 13.2378 18.933 13.4155 19.5642 13.2163L19.9521 13.0276ZM18.5811 13.1042C18.471 13.407 18.3523 13.7131 18.2327 13.9965C17.9477 14.3307 18.0691 14.1402 17.6425 14.6593C17.7791 14.4487 17.9566 14.2464 18.0495 14.0271C18.1146 13.8827 18.196 13.7295 18.232 13.6012C18.1189 13.5447 17.8874 13.5402 17.856 13.5605C17.4767 13.7842 17.4083 14.0209 17.1847 14.2514C17.3467 13.9923 17.4851 13.7096 17.673 13.4764C17.6944 13.4462 17.8335 13.4403 17.919 13.4224C17.7862 13.3994 17.5402 13.3519 17.5204 13.354C17.273 13.4135 17.1343 13.629 16.9507 13.7721C17.0846 13.5788 17.2079 13.3775 17.378 13.2113C17.3948 13.1917 17.8544 13.232 18.0926 13.327L18.0973 13.4218L18.2326 13.4764L18.3343 13.2215L18.5811 13.1042ZM15.5798 14.9295C15.5188 14.9085 14.9796 14.8395 14.9796 14.8556C14.7725 15.003 14.7411 15.144 14.7456 15.2661C15.0902 14.9272 15.0772 14.9262 15.5799 14.9295L15.5798 14.9295ZM15.1701 12.4921C15.1701 12.4921 15.5592 12.4354 15.5516 12.4717C15.5234 12.6067 15.5992 12.9357 15.6076 12.8898L15.3888 13.0683C15.8469 12.8379 16.3292 12.8842 16.8183 12.849C16.8183 12.849 16.4065 12.7353 16.4317 12.7317C16.5235 12.7187 16.4072 12.3023 16.3757 12.2933C16.4542 12.2668 16.5305 12.2467 16.6097 12.227C16.0208 12.0729 15.6803 12.1637 15.17 12.4921L15.1701 12.4921Z" fill="black"/>
<path fill-rule="evenodd" clip-rule="evenodd" d="M18.5375 12.7826L18.451 12.8259C18.4388 12.5726 18.1667 12.5912 17.9372 12.5889L17.749 12.543C17.8065 12.5959 17.9832 12.5918 17.9118 12.7061C17.8518 12.7382 17.8241 12.8759 17.7897 12.9916L17.688 12.9967L18.2323 13.2109L18.3491 13.2287L18.6289 13.0783L18.5375 12.7826Z" fill="black"/>
<path fill-rule="evenodd" clip-rule="evenodd" d="M15.9587 12.6125C15.9149 12.5258 15.6946 12.5381 15.6471 12.5942C15.6085 12.6398 15.6447 12.932 15.6942 12.8827C15.7657 12.8198 15.8592 12.7935 15.9714 12.7986C15.9856 12.7446 15.9806 12.6863 15.9587 12.6125L15.9587 12.6125ZM18.0716 13.0479C18.0923 13.0326 18.1361 12.8862 18.1219 12.8424C18.093 12.7389 17.8881 12.7607 17.8881 12.7607C17.8383 12.7901 17.7943 12.9514 17.8126 13.0046C17.8213 13.0497 18.0385 13.064 18.0716 13.0479L18.0716 13.0479Z" fill="white"/>
<path fill-rule="evenodd" clip-rule="evenodd" d="M9.31052 18.1035L9.43995 18.1161C10.2072 18.4929 11.4705 19.0514 13.2994 18.7512L13.5864 19.2028C12.7809 19.5942 11.9146 19.5041 11.103 19.5316L9.31052 18.1035ZM8.20898 15.1254L8.59332 16.7389C9.62229 17.3821 11.38 18.1188 12.8451 18.0593L12.5215 17.3164C9.46318 16.667 9.2045 15.8459 8.20923 15.1252L8.20898 15.1254ZM9.16538 11.8206C9.35302 13.0709 9.60398 14.0187 10.6914 14.8129C11.3578 15.2921 12.0193 15.7694 12.8238 16.1632C12.8238 16.1632 12.7533 16.5303 12.6943 16.5238C10.3 16.2576 8.54706 14.2724 8.33453 13.3656C8.54017 12.67 8.83523 12.2356 9.16552 11.8206L9.16538 11.8206ZM10.3161 11.1121C10.6352 12.4979 11.396 13.9015 12.1523 15.1748C12.4295 15.5265 12.5021 15.6817 12.9293 15.8958C13.5068 16.0787 13.9151 16.032 14.3343 16.0045C14.2194 15.792 14.1173 15.5698 13.9855 15.37C13.0469 14.6278 13.4807 13.952 13.73 13.5241C13.2081 13.3922 12.5166 13.112 12.4214 12.7433C12.2682 11.551 12.346 11.1728 12.4993 10.5605C11.7928 10.7095 11.0767 10.8572 10.3165 11.1124L10.3161 11.1121Z" fill="black"/>
<path fill-rule="evenodd" clip-rule="evenodd" d="M7.72366 3.75082C7.4914 3.90256 7.26761 4.11952 7.0267 4.36611C6.62762 4.77921 6.3623 5.18216 5.95609 5.48093C5.87485 5.55101 5.64687 5.66379 5.36024 5.68054C5.22521 5.68728 5.13725 5.70965 4.88914 5.67847C4.67033 5.55999 4.46245 5.63704 4.25959 5.87952C4.0371 6.19928 3.75537 6.80695 3.63821 7.18918C3.39695 8.16447 4.01234 8.96804 4.60272 9.58735C5.12793 10.1004 5.4307 10.4211 5.64633 10.8914C5.8096 11.1965 5.93055 11.6152 6.0615 11.9087C6.10872 12.0017 6.09889 12.0013 6.22616 12.0293C6.5006 12.0879 6.88128 12.0883 7.22018 12.1175C7.36681 12.1195 7.56818 12.1141 7.75898 12.0942C8.02187 12.0445 8.33077 11.9959 8.58966 11.9065C8.84265 11.8442 9.06805 11.7579 9.27124 11.6785C9.24501 11.7675 9.05147 11.8531 8.9789 11.9658C8.29018 12.9519 8.10152 13.8289 8.22144 15.2131C8.28926 15.8266 8.43007 16.3352 8.64253 16.9172C8.73974 17.1835 8.94662 17.6052 9.14487 17.8853C9.7346 18.7183 11.0533 19.7881 12.8893 20.1998C13.2096 20.2436 13.5731 20.2203 13.915 20.1292C14.8211 19.8545 16.6679 19.2049 16.6679 19.2049C16.6679 19.2049 15.0286 19.3405 14.2778 19.2663C14.104 19.2391 13.9125 19.2299 13.7914 19.1114C13.7711 19.0852 13.6973 18.9366 13.7449 18.9352C13.8099 18.9334 13.9966 18.856 14.2849 18.8303C13.6697 18.764 13.6785 18.7648 13.6336 18.6528C13.5637 18.4788 13.4568 18.2411 13.3468 18.0331C13.6171 18.056 14.2156 18.0895 14.4187 17.8798C14.4187 17.8798 14.0646 17.9207 13.7516 17.884C13.6462 17.8716 13.4663 17.8075 13.4127 17.7877C13.2722 17.733 13.1565 17.716 13.1295 17.6805C13.0808 17.5563 13.0477 17.5145 12.9888 17.3481C12.9091 17.1279 12.9027 16.8822 12.8873 16.6573C13.0921 16.9096 13.353 17.1221 13.6983 17.2305C13.7027 17.2212 14.1464 17.4234 14.4685 17.3194L14.5356 17.2979C14.5356 17.3036 14.3221 17.3166 14.2438 17.2778C13.5886 16.9993 13.49 16.7556 13.3842 16.6345L13.1013 16.2107C13.1873 16.0391 13.236 16.0326 13.3502 16.031C13.6948 16.0693 13.8451 16.0988 14.0549 16.0482C14.1967 16.34 14.235 16.6335 14.5578 16.8459C15.6332 17.1651 15.8669 16.7511 16.1274 16.3853C16.9011 16.9531 18.1608 17.1282 19.0358 16.3951C20.148 15.1082 20.5001 13.0794 20.4015 12.9636C20.2626 12.7279 20.0803 12.4849 19.9239 12.5185C19.3661 12.6708 19.1605 12.9537 18.6078 12.8892C18.6736 12.8855 18.7843 12.8837 18.7851 12.8774C18.8277 12.4095 18.7817 12.183 18.7612 12.1441C18.5934 11.7743 18.3732 11.385 18.2197 11.0933C18.1801 11.0328 18.0639 10.5732 17.8692 10.3916C17.7857 10.3203 17.5812 10.1323 17.5812 10.1323L17.5639 10.3322C17.5639 10.3322 17.6438 10.3442 17.6742 10.4681C17.7895 10.9375 18.3767 12.0474 18.4198 12.1006C18.6278 12.4365 18.4409 12.855 18.5991 13.0898C18.6143 13.1196 18.9219 13.0872 19.1602 13.1018C19.5522 13.0175 19.5355 12.8447 19.8743 12.8188C20.1024 12.8013 20.1253 13.2297 20.1223 13.2629C20.0798 13.7359 19.9359 14.2859 19.7157 14.7881C19.2578 15.6702 18.7449 16.4625 18.0179 16.573C17.1309 16.7279 16.6699 16.3402 16.1891 16.0932L16.0052 16.2501C15.3803 16.8724 14.6381 16.8171 14.3348 16.0041C14.1835 15.6886 13.9868 15.4953 13.8183 15.2248L12.9243 15.8686C12.8499 16.0212 12.7584 16.2619 12.6473 16.5307C12.57 16.7176 12.5052 17.0386 12.5094 17.3053C12.3948 17.5006 12.9063 18.2922 13.2293 18.7738L13.5089 19.1796C13.573 19.3458 13.7134 19.4926 13.7219 19.5105C14.3219 20.2931 12.965 20.1129 12.6847 20.0658C12.1319 19.9777 11.5911 19.7467 11.0827 19.4379L10.9945 19.3834C10.3904 19.003 9.8346 18.5163 9.36198 18.035C9.08017 17.7159 8.81184 17.0618 8.61365 16.5981C8.31662 15.4832 7.89035 13.5508 9.04507 12.0864C9.11827 12.0027 9.19726 11.8634 9.2645 11.8356C9.60758 11.6036 9.98012 11.4454 10.3807 11.3576L10.3403 11.0979C10.1402 11.1434 9.46656 11.3898 9.2761 11.4929C8.84294 11.6185 8.48364 11.7496 7.93159 11.8878C7.75215 11.9098 7.57561 11.9102 7.40352 11.8868C7.00641 11.8328 6.32948 11.8811 6.28629 11.8409C6.01738 11.4659 5.94355 10.794 5.69841 10.4345L5.69554 10.4309L5.69244 10.4275C5.54941 10.2352 5.3827 10.0784 5.21851 9.91528C4.63054 9.3313 4.12713 8.76646 3.98643 8.16773C3.95101 7.991 3.8598 7.80776 3.90828 7.28505L3.90918 7.28248L3.91002 7.27992C4.05148 6.79142 4.28161 6.39341 4.67219 5.99413C5.07864 6.0007 5.48096 6.00945 5.79434 6.0695C5.93794 6.09355 6.2371 6.13261 6.5459 6.24764C7.32752 6.53881 8.36028 7.01735 8.36028 7.01735C7.58505 6.5916 6.71822 6.03865 6.17081 5.92706C6.08936 5.91553 6.03931 5.87837 6.01514 5.81352C6.83847 5.32979 6.98906 4.76043 7.53058 4.24947C7.77805 4.14175 7.87456 4.08676 8.08483 4.0639C10.0296 4.3714 11.2537 5.14599 12.2225 5.66394C12.6156 5.8777 12.9731 6.03934 13.3142 6.23401C13.6133 6.33242 14.516 7.01395 14.7803 7.3814C15.0487 7.94806 15.2446 8.56015 15.4233 9.15059C15.5515 9.75133 15.6639 9.99501 15.6639 9.99501C15.6639 9.99501 15.555 9.49254 15.5731 9.40226C15.6861 9.44446 15.953 9.5278 16.0637 9.51484C16.0637 9.51484 15.5693 9.2593 15.5046 9.03348C15.2967 8.30882 15.0883 7.18072 15.032 7.1219C14.8736 6.92277 14.213 6.41698 13.8078 6.18312C13.6545 6.09466 13.5716 6.03976 13.5652 6.00087C13.6946 5.8701 13.8543 5.69711 13.9979 5.58718C14.1353 5.48182 14.2602 5.36316 14.4519 5.29188C15.2937 4.91276 15.775 5.43774 15.8892 5.33143C15.8892 5.33143 15.7081 5.12388 15.7885 5.15804C15.8709 5.20265 16.1394 5.25527 16.1688 5.28249C16.4756 5.52248 17.2777 6.39961 17.7611 7.3251C17.8772 7.55181 17.9244 7.70108 17.8706 7.97406C17.8166 8.24729 17.7748 8.39753 17.7159 8.58C17.6627 8.70197 17.3617 9.53713 17.3629 9.64933C17.3022 10.1076 17.5594 10.6812 17.5594 10.6812C17.5618 10.5255 17.5498 10.4425 17.5639 10.3312L17.5812 10.1322C17.5812 10.1322 17.5703 10.0793 17.5722 10.0583C17.5853 9.92066 17.6191 9.80496 17.629 9.72617C17.7256 9.12773 17.8936 8.69692 18.0842 8.17177C18.1408 8.03923 18.2149 7.96556 18.2111 7.86465C18.2142 7.68559 18.054 7.44525 17.9382 7.21053C17.8214 6.9731 17.6817 6.70884 17.4986 6.43009C17.0808 5.82933 16.7247 5.35929 16.0725 5.06491C15.8901 4.98483 15.1721 4.90656 14.9241 4.95309C14.6235 5.01576 14.3646 5.07754 14.1582 5.20962C13.8337 5.41744 13.5786 5.73923 13.2794 5.92878C12.6177 5.59788 12.2983 5.35024 12.2387 5.31608C11.8454 5.10535 11.3733 4.8608 10.8653 4.6287C10.6218 4.40158 9.10952 3.85835 7.72442 3.75L7.72366 3.75082ZM16.1882 16.093C15.7804 15.7742 15.4371 15.4459 15.2107 15.1081C15.1369 15.5056 14.8687 15.7886 14.6614 16.067C14.6202 16.1321 14.5905 16.2214 14.7936 16.5051C14.8484 16.5807 15.0465 16.5937 15.1802 16.5867C15.0442 16.4838 14.8371 16.3751 14.8038 16.2808C15.0431 16.4435 15.2648 16.4906 15.4651 16.4643C15.511 16.4592 15.5677 16.4106 15.6117 16.3359C15.701 16.1441 15.7709 16.0979 15.8415 16.0462L16.0043 16.2502L16.1882 16.093Z" fill="black" stroke="black" stroke-width="0.00829852"/>
</svg>
