<svg width="32" height="32" viewBox="0 0 32 32" fill="none" xmlns="http://www.w3.org/2000/svg">
<circle cx="16" cy="16" r="15" fill="#FAF8E0"/>
<path fill-rule="evenodd" clip-rule="evenodd" d="M17.6217 8.05671C17.4252 7.51766 10.6542 4.88544 10.5679 5.17444C9.32466 5.49853 8.81867 6.93152 7.96343 7.8392L6.06422 7.73044C5.22762 8.8063 4.78859 9.90555 5.08751 11.048C6.1598 12.5008 7.40457 13.737 8.18041 15.5616C8.24173 16.4217 11.9031 15.6518 12.6879 15.4815C11.6159 16.249 10.6823 17.4384 11.0835 20.8642C11.4497 22.4729 11.7003 24.269 14.9486 26.0885C15.3762 26.328 16.261 26.6044 16.8081 26.8058C17.3314 27.0458 17.9432 27.1445 19.6692 26.6166C20.668 26.1861 21.7464 25.9268 22.7238 25.4973L21.549 25.5524C19.9312 25.5877 18.6821 25.7083 18.2971 25.2563L16.8082 22.686L17.6762 21C18.8775 21.1232 19.2763 22.0974 20.3351 22.4684L21.5831 21.5439C25.2083 23.6837 26.6502 20.1878 27.0635 17.465C27.0194 16.3573 24.665 17.8123 24.8077 17.2945C24.863 16.1037 23.8923 14.5458 23.2652 13.3318L23.991 10.5236C24.3203 10.23 22.4664 7.10622 20.9525 6.71664C19.6242 6.37455 17.6219 8.05673 17.6219 8.05673L17.6217 8.05671Z" fill="#FDEE21"/>
<path fill-rule="evenodd" clip-rule="evenodd" d="M23.577 14.0255C23.5898 14.3271 23.5885 14.694 23.6177 14.9228C23.6127 15.0974 23.4818 15.1041 23.3735 15.1403L24.0789 15.3987C24.219 15.6343 24.3315 15.87 24.4452 16.1057C24.577 16.6854 24.4784 16.702 24.3909 16.7447C24.135 16.7473 23.8797 16.7478 23.6414 16.6971C23.7482 16.7535 23.7716 16.7945 23.783 16.8667C23.8038 16.9997 23.7181 17.1815 23.577 17.3565C23.7856 17.4723 24.166 17.5855 24.4486 17.693L24.7708 16.9758C24.6249 15.9222 24.1824 14.9513 23.577 14.0254V14.0255ZM24.8936 17.5595C25.2848 17.7226 25.8253 17.6748 26.5746 17.2886C26.6861 17.2093 26.7898 17.2567 26.5904 17.3871C25.6076 18.269 25.1371 17.8278 24.8936 17.5595H24.8936Z" fill="#C8C037"/>
<path fill-rule="evenodd" clip-rule="evenodd" d="M26.6498 17.173C26.7661 17.3955 26.6956 17.5765 26.6566 17.7645C26.5353 18.7205 26.2374 19.4764 25.6528 20.2662C23.7514 23.3231 21.8318 21.4103 20.3013 20.1655L19.6683 21.7518C19.6347 21.8908 19.4947 21.9991 20.4836 22.4344L21.4908 21.723C25.3319 24.6456 28.0539 17.6321 26.6498 17.1731L26.6498 17.173ZM20.7645 19.9047C20.5054 19.9232 19.7342 20.1854 19.6998 20.3373L20.0547 19.8085L20.7645 19.9047ZM20.2606 16.6632C20.3081 16.6632 20.536 16.7244 20.5116 16.7108C20.4766 16.6913 20.5076 17.0304 20.5794 17.2071L20.3013 17.8121C20.834 17.1978 21.6763 17.2387 22.4582 17.1595L22.0851 16.9283C22.1499 16.7122 22.0736 16.5412 22.0377 16.3573L20.2606 16.6632ZM21.5695 14.8412C20.998 15.0164 20.4509 15.3026 20.0836 15.9128C20.3638 14.9071 20.4209 14.9452 20.5114 14.8955C20.9033 14.7203 21.2242 14.8295 21.5695 14.8412Z" fill="#C8C037"/>
<path fill-rule="evenodd" clip-rule="evenodd" d="M18.5168 26.6301C17.8257 27.3927 16.2837 26.5724 15.0032 26.1542C11.7492 24.0851 11.1135 22.1372 11.0691 20.2263C10.9018 17.489 11.7423 15.8985 12.8055 15.522C12.1019 16.8784 11.7741 19.3131 12.1001 21.1236C12.3634 22.1309 12.3689 23.8298 14.0542 24.7391C14.8795 25.2038 14.656 25.5655 15.214 26.0006C15.8256 26.4775 17.5308 26.9308 18.5165 26.6301L18.5168 26.6301ZM19.5492 13.9802C18.3792 12.3208 16.7333 11.6982 14.8778 11.6302C15.2498 11.5089 15.6217 11.4458 15.9936 11.2665C16.0846 11.1708 16.0549 11.0024 16.0207 10.8314C14.2344 10.365 13.107 9.78854 11.6799 9.25421L15.5323 10.1788C18.1338 10.2776 17.9106 10.9199 19.5491 13.9801L19.5492 13.9802ZM20.8019 13.1799C19.9373 11.9456 19.0986 10.4475 17.9605 9.49473C15.2125 8.2544 12.4942 7.33325 9.30859 6.49502L10.3254 5.1875C13.706 5.95918 16.8813 7.25048 19.7253 9.37943C20.2065 10.5962 20.5274 11.8145 20.8019 13.18V13.1799ZM22.5451 10.9987C22.5451 10.9987 22.0603 9.91111 21.8243 9.49585C21.2768 8.88912 20.9997 7.75847 19.8787 7.22572C20.2333 7.32146 20.476 7.20739 21.2001 7.86375L22.3405 10.027L22.5451 10.9987ZM23.1481 12.8827C23.2599 11.9405 23.4722 10.4294 23.2286 9.83197L21.1852 7.10976C21.0721 7.00451 20.9907 6.86162 20.9018 6.75021C21.8618 6.99897 22.864 7.66656 24.2156 10.3021L23.1481 12.8827Z" fill="#FCF6A0"/>
<path fill-rule="evenodd" clip-rule="evenodd" d="M19.1118 12.9932C18.7293 12.6919 18.3885 11.6273 17.809 11.4063C17.2729 11.3614 17.0759 11.1926 16.3706 11.3363C16.6264 11.2081 16.8679 11.0441 17.1399 10.9563C17.3241 10.9128 17.4968 10.961 17.6726 10.9852C17.716 10.9647 17.7444 10.9392 17.7338 10.9006C17.0238 10.4619 15.5672 10.4556 14.584 10.2051C15.7252 10.2433 16.9877 10.1801 17.8454 10.4553C18.535 11.0674 18.759 12.2199 19.1118 12.9933V12.9932ZM21.2026 7.85938C21.3609 7.87375 22.2129 9.22145 22.253 9.4457C22.3238 9.93591 22.4985 10.4855 22.5455 10.9984C22.4052 10.5064 22.2523 10.0146 22.0611 9.52264C22.005 9.38718 21.8639 9.08093 21.4712 8.64775C21.2883 8.34242 21.2491 8.10244 21.2026 7.8594L21.2026 7.85938ZM24.09 15.1997H23.7253L24.1281 15.3054L24.09 15.1997ZM21.6029 14.8359C21.2364 14.7908 20.86 14.7848 20.4937 14.8654C20.3443 15.0661 20.334 15.2702 20.2687 15.4588C20.7143 14.9677 20.8911 14.9377 21.6029 14.8359L21.6029 14.8359ZM26.6021 17.3702C26.3979 17.533 26.3777 17.6862 25.7746 17.8699C25.3348 17.9739 25.0863 17.7976 24.8793 17.5605C25.1932 17.6505 25.2433 17.8873 26.0849 17.6217L26.6021 17.3702ZM24.7742 17.4723C24.6274 17.876 24.4691 18.2841 24.3096 18.662C23.9296 19.1076 24.0915 18.8537 23.5227 19.5457C23.7048 19.265 23.9414 18.9952 24.0653 18.7028C24.1521 18.5102 24.2607 18.3059 24.3087 18.1349C24.1579 18.0596 23.8492 18.0536 23.8073 18.0806C23.3016 18.3789 23.2104 18.6945 22.9122 19.0019C23.1283 18.6565 23.3129 18.2794 23.5634 17.9685C23.5919 17.9282 23.7774 17.9204 23.8914 17.8966C23.7142 17.8659 23.3863 17.8025 23.3599 17.8054C23.03 17.8846 22.8451 18.172 22.6002 18.3628C22.7788 18.105 22.9432 17.8366 23.17 17.615C23.1924 17.589 23.8052 17.6426 24.1228 17.7694L24.1291 17.8958L24.3095 17.9685L24.4451 17.6286L24.7742 17.4723ZM20.7724 19.906C20.6911 19.8779 19.9721 19.786 19.9721 19.8075C19.6961 20.004 19.6542 20.192 19.6601 20.3547C20.1197 19.9029 20.1023 19.9017 20.7725 19.9061L20.7724 19.906ZM20.2261 16.6561C20.2261 16.6561 20.7449 16.5805 20.7348 16.6289C20.6972 16.8089 20.7983 17.2476 20.8094 17.1864L20.5178 17.4243C21.1286 17.1172 21.7716 17.1789 22.4237 17.132C22.4237 17.132 21.8747 16.9804 21.9082 16.9757C22.0307 16.9583 21.8756 16.403 21.8336 16.391C21.9383 16.3557 22.0401 16.329 22.1456 16.3027C21.3604 16.0972 20.9064 16.2183 20.2261 16.6562L20.2261 16.6561Z" fill="black"/>
<path fill-rule="evenodd" clip-rule="evenodd" d="M24.7167 17.0441L24.6014 17.1019C24.585 16.7642 24.2223 16.7889 23.9163 16.7858L23.6654 16.7246C23.742 16.7952 23.9776 16.7897 23.8824 16.9421C23.8023 16.9849 23.7655 17.1686 23.7196 17.3228L23.584 17.3296L24.3097 17.6151L24.4655 17.6389L24.8385 17.4384L24.7167 17.0441Z" fill="black"/>
<path fill-rule="evenodd" clip-rule="evenodd" d="M21.2779 16.816C21.2195 16.7005 20.9258 16.7169 20.8624 16.7916C20.811 16.8524 20.8592 17.242 20.9252 17.1763C21.0206 17.0924 21.1452 17.0573 21.2949 17.0641C21.3138 16.9921 21.3071 16.9144 21.278 16.816L21.2779 16.816ZM24.0951 17.3965C24.1227 17.3761 24.1811 17.181 24.1622 17.1225C24.1236 16.9846 23.8505 17.0136 23.8505 17.0136C23.7841 17.0528 23.7254 17.2679 23.7498 17.3389C23.7614 17.3989 24.051 17.4181 24.0951 17.3966L24.0951 17.3965Z" fill="white"/>
<path fill-rule="evenodd" clip-rule="evenodd" d="M12.4135 24.1374L12.5861 24.1542C13.6091 24.6565 15.2935 25.4012 17.7321 25.001L18.1147 25.6031C17.0408 26.125 15.8857 26.0049 14.8035 26.0415L12.4135 24.1374ZM10.9448 20.1665L11.4573 22.3178C12.8292 23.1754 15.1728 24.1577 17.1263 24.0785L16.6949 23.0879C12.6171 22.222 12.2722 21.1273 10.9452 20.1663L10.9448 20.1665ZM12.22 15.7601C12.4702 17.4272 12.8048 18.6909 14.2547 19.7499C15.1432 20.3889 16.0252 21.0252 17.0979 21.5503C17.0979 21.5503 17.0039 22.0397 16.9253 22.031C13.7328 21.6762 11.3956 19.0293 11.1122 17.8202C11.3864 16.8927 11.7798 16.3134 12.2202 15.7601L12.22 15.7601ZM13.7543 14.8155C14.1798 16.6632 15.1941 18.5347 16.2026 20.2324C16.5722 20.7013 16.6689 20.9083 17.2386 21.1938C18.0086 21.4376 18.553 21.3754 19.1119 21.3387C18.9587 21.0553 18.8226 20.759 18.6468 20.4927C17.3954 19.503 17.9737 18.602 18.3061 18.0315C17.6103 17.8557 16.6883 17.482 16.5613 16.9904C16.3571 15.4007 16.4608 14.8964 16.6652 14.0801C15.7232 14.2787 14.7684 14.4756 13.7549 14.8158L13.7543 14.8155Z" fill="black"/>
<path fill-rule="evenodd" clip-rule="evenodd" d="M10.2977 5.0011C9.98805 5.20342 9.68966 5.49269 9.36845 5.82149C8.83634 6.37228 8.48258 6.90955 7.94097 7.30791C7.83265 7.40135 7.52867 7.55172 7.1465 7.57406C6.96646 7.58304 6.84918 7.61286 6.51837 7.5713C6.22662 7.41332 5.94945 7.51605 5.67896 7.83936C5.38231 8.2657 5.00667 9.07593 4.85045 9.58557C4.52878 10.886 5.3493 11.9574 6.13647 12.7831C6.83675 13.4672 7.24044 13.8947 7.52796 14.5219C7.74565 14.9286 7.90691 15.4869 8.08151 15.8782C8.14447 16.0023 8.13137 16.0017 8.30106 16.0391C8.66698 16.1172 9.17455 16.1178 9.62642 16.1566C9.82193 16.1594 10.0904 16.1521 10.3448 16.1256C10.6953 16.0594 11.1072 15.9945 11.4524 15.8754C11.7897 15.7923 12.0902 15.6773 12.3612 15.5714C12.3262 15.6899 12.0681 15.8041 11.9714 15.9544C11.0531 17.2691 10.8015 18.4386 10.9614 20.2842C11.0519 21.1022 11.2396 21.7803 11.5229 22.5562C11.6525 22.9113 11.9283 23.4736 12.1927 23.8471C12.979 24.9578 14.7372 26.3841 17.1852 26.9331C17.6123 26.9915 18.097 26.9603 18.5528 26.839C19.761 26.4727 22.2234 25.6065 22.2234 25.6065C22.2234 25.6065 20.0376 25.7873 19.0366 25.6884C18.8048 25.6521 18.5495 25.6399 18.388 25.4819C18.361 25.4469 18.2626 25.2488 18.3261 25.247C18.4128 25.2446 18.6616 25.1413 19.046 25.107C18.2258 25.0187 18.2375 25.0198 18.1776 24.8704C18.0845 24.6384 17.942 24.3214 17.7953 24.0441C18.1557 24.0747 18.9537 24.1193 19.2245 23.8398C19.2245 23.8398 18.7523 23.8943 18.335 23.8453C18.1944 23.8288 17.9546 23.7433 17.8831 23.7169C17.6958 23.6439 17.5415 23.6213 17.5056 23.5739C17.4405 23.4084 17.3964 23.3527 17.3179 23.1309C17.2116 22.8372 17.2032 22.5095 17.1826 22.2097C17.4556 22.5462 17.8035 22.8294 18.264 22.974C18.2698 22.9616 18.8613 23.2312 19.2909 23.0925L19.3803 23.0638C19.3803 23.0715 19.0957 23.0888 18.9913 23.0371C18.1176 22.6658 17.9862 22.3407 17.8451 22.1793L17.4679 21.6143C17.5826 21.3855 17.6475 21.3768 17.7998 21.3747C18.2593 21.4257 18.4596 21.4651 18.7394 21.3976C18.9285 21.7866 18.9795 22.178 19.4099 22.4612C20.8438 22.8868 21.1554 22.3348 21.5027 21.847C22.5344 22.6042 24.2139 22.8376 25.3806 21.8602C26.8635 20.1443 27.333 17.4392 27.2015 17.2848C27.0163 16.9706 26.7733 16.6465 26.5646 16.6913C25.821 16.8943 25.5468 17.2716 24.8099 17.1856C24.8977 17.1806 25.0453 17.1783 25.0464 17.1699C25.1031 16.5459 25.0418 16.244 25.0144 16.1922C24.7908 15.699 24.4972 15.18 24.2925 14.7911C24.2397 14.7105 24.0847 14.0976 23.8251 13.8555C23.7137 13.7604 23.4411 13.5097 23.4411 13.5097L23.418 13.7762C23.418 13.7762 23.5246 13.7923 23.5651 13.9574C23.7189 14.5833 24.5017 16.0632 24.5592 16.1341C24.8366 16.582 24.5874 17.14 24.7983 17.4531C24.8186 17.4928 25.2287 17.4496 25.5465 17.4691C26.0692 17.3567 26.0469 17.1263 26.4986 17.0917C26.8027 17.0684 26.8332 17.6396 26.8292 17.6839C26.7725 18.3146 26.5807 19.0479 26.2871 19.7175C25.6766 20.8937 24.9927 21.95 24.0234 22.0973C22.8407 22.3039 22.2261 21.7869 21.585 21.4576L21.3397 21.6668C20.5065 22.4965 19.5169 22.4228 19.1126 21.3387C18.9109 20.9182 18.6486 20.6604 18.4239 20.2997L17.232 21.1582C17.1327 21.3616 17.0107 21.6825 16.8625 22.041C16.7595 22.2901 16.6731 22.7181 16.6787 23.0738C16.5259 23.3341 17.208 24.3896 17.6386 25.0317L18.0114 25.5727C18.0968 25.7944 18.284 25.9902 18.2954 26.014C19.0954 27.0574 17.2862 26.8172 16.9125 26.7544C16.1753 26.6369 15.4543 26.329 14.7765 25.9172L14.6589 25.8445C13.8534 25.3373 13.1123 24.6884 12.4821 24.0466C12.1064 23.6211 11.7486 22.749 11.4844 22.1308C11.0883 20.6443 10.52 18.0678 12.0596 16.1153C12.1572 16.0036 12.2625 15.8178 12.3522 15.7808C12.8096 15.4714 13.3063 15.2605 13.8405 15.1435L13.7866 14.7972C13.5198 14.8578 12.6216 15.1863 12.3676 15.3239C11.7901 15.4913 11.311 15.6661 10.575 15.8504C10.3357 15.8797 10.1003 15.8802 9.87087 15.8491C9.34139 15.7771 8.43882 15.8414 8.38123 15.7879C8.02269 15.2879 7.92425 14.3921 7.5974 13.9126L7.59357 13.9078L7.58943 13.9033C7.39873 13.647 7.17644 13.4379 6.95753 13.2204C6.17357 12.4417 5.50235 11.6886 5.31476 10.8903C5.26753 10.6547 5.14591 10.4104 5.21055 9.7134L5.21175 9.70998L5.21287 9.70656C5.40148 9.05522 5.70832 8.52454 6.22909 7.99218C6.77103 8.00093 7.30746 8.0126 7.7253 8.09266C7.91677 8.12473 8.31564 8.17681 8.72738 8.33019C9.76954 8.71841 11.1465 9.35647 11.1465 9.35647C10.1129 8.7888 8.95715 8.05153 8.22726 7.90275C8.11866 7.88738 8.05192 7.83783 8.0197 7.75136C9.11747 7.10638 9.31826 6.34724 10.0403 5.66596C10.3703 5.52233 10.4989 5.44901 10.7793 5.41853C13.3723 5.82853 15.0044 6.86133 16.2962 7.55192C16.8203 7.83693 17.297 8.05245 17.7518 8.31201C18.1506 8.44323 19.3542 9.35193 19.7065 9.84186C20.0644 10.5974 20.3256 11.4135 20.564 12.2008C20.7348 13.0018 20.8847 13.3267 20.8847 13.3267C20.8847 13.3267 20.7395 12.6567 20.7637 12.5363C20.9143 12.5926 21.2702 12.7037 21.4178 12.6865C21.4178 12.6865 20.7586 12.3457 20.6723 12.0446C20.3952 11.0784 20.1172 9.57429 20.0422 9.49586C19.831 9.23036 18.9502 8.55597 18.4099 8.24415C18.2055 8.12621 18.095 8.05301 18.0864 8.00116C18.259 7.8268 18.4719 7.59614 18.6633 7.44958C18.8466 7.30909 19.0131 7.15088 19.2687 7.05584C20.3911 6.55035 21.0328 7.25032 21.1851 7.10858C21.1851 7.10858 20.9437 6.83184 21.0509 6.87738C21.1607 6.93687 21.5187 7.00702 21.558 7.04333C21.967 7.36331 23.0365 8.53282 23.681 9.76681C23.8358 10.0691 23.8988 10.2681 23.8269 10.6321C23.7549 10.9964 23.6992 11.1967 23.6207 11.44C23.5498 11.6026 23.1485 12.7162 23.15 12.8658C23.0692 13.4767 23.412 14.2416 23.412 14.2416C23.4153 14.034 23.3993 13.9234 23.4181 13.7749L23.4412 13.5096C23.4412 13.5096 23.4265 13.439 23.4292 13.411C23.4466 13.2276 23.4916 13.0733 23.5048 12.9682C23.6337 12.1703 23.8577 11.5959 24.1118 10.8957C24.1873 10.719 24.2861 10.6207 24.281 10.4862C24.2852 10.2474 24.0715 9.927 23.9172 9.61404C23.7614 9.29747 23.5751 8.94512 23.331 8.57346C22.774 7.77245 22.2991 7.14572 21.4296 6.75321C21.1863 6.64644 20.2289 6.54208 19.8983 6.60412C19.4975 6.68767 19.1524 6.77006 18.8771 6.94616C18.4444 7.22326 18.1044 7.6523 17.7053 7.90505C16.823 7.46385 16.3972 7.13365 16.3178 7.0881C15.7934 6.80713 15.1639 6.48107 14.4866 6.1716C14.1619 5.86877 12.1455 5.14447 10.2987 5L10.2977 5.0011ZM21.5838 21.4574C21.04 21.0323 20.5823 20.5945 20.2805 20.1441C20.182 20.6741 19.8244 21.0515 19.5481 21.4227C19.4931 21.5095 19.4534 21.6285 19.7243 22.0068C19.7973 22.1076 20.0615 22.1249 20.2398 22.1156C20.0584 21.9785 19.7824 21.8334 19.7379 21.7077C20.057 21.9247 20.3525 21.9874 20.6196 21.9524C20.6809 21.9455 20.7565 21.8809 20.8151 21.7812C20.9341 21.5254 21.0273 21.4638 21.1215 21.395L21.3386 21.6669L21.5838 21.4574Z" fill="black" stroke="black" stroke-width="0.00829852"/>
</svg>
