<svg width="32" height="32" viewBox="0 0 32 32" fill="none" xmlns="http://www.w3.org/2000/svg">
<circle cx="16" cy="16" r="15" fill="#EEEEED"/>
<path d="M13.8088 6.95727C13.56 6.71356 13.2129 6.56306 12.8271 6.56306C12.4427 6.56306 12.0983 6.71356 11.8524 6.95727H11.8454C11.5973 7.19979 11.4429 7.53836 11.4429 7.91308C11.4429 8.28922 11.5973 8.62494 11.8454 8.86603L11.8524 8.8715C12.0983 9.11402 12.4427 9.2631 12.8271 9.2631C13.2129 9.2631 13.56 9.11402 13.8088 8.8715L13.8124 8.86603C14.0617 8.62494 14.2146 8.28922 14.2146 7.91308C14.2146 7.53836 14.0617 7.19979 13.8124 6.95727H13.8088ZM12.8271 25.4369C13.2129 25.4369 13.56 25.2838 13.8088 25.0442L13.8124 25.037C14.0617 24.7978 14.2146 24.4593 14.2146 24.0872C14.2146 23.711 14.0617 23.3739 13.8124 23.1302H13.8088C13.56 22.8836 13.2129 22.7345 12.8271 22.7345C12.4427 22.7345 12.0983 22.8836 11.8524 23.1302H11.8454C11.5973 23.3739 11.4429 23.711 11.4429 24.0872C11.4429 24.4593 11.5973 24.7978 11.8454 25.037L11.8524 25.0442C12.0983 25.2838 12.4427 25.4369 12.8271 25.4369ZM20.3724 21.3469C20.7156 21.2592 21.0264 21.0445 21.2159 20.72L21.2415 20.6726C21.41 20.3647 21.4407 20.0095 21.3507 19.6947C21.26 19.3576 21.0371 19.0594 20.7049 18.8728L20.6856 18.8602C20.362 18.6873 19.9932 18.6498 19.6544 18.7389C19.31 18.8226 19.0007 19.0468 18.8122 19.3687C18.6212 19.6876 18.5812 20.0554 18.6727 20.394C18.7671 20.7269 18.9878 21.0279 19.3178 21.2159H19.32C19.6507 21.4011 20.0254 21.4347 20.3724 21.3469ZM14.2483 14.6166C13.8844 14.2628 13.3829 14.0412 12.8271 14.0412C12.2734 14.0412 11.7732 14.2628 11.41 14.6166C11.0485 14.9692 10.8256 15.4568 10.8256 15.9973C10.8256 16.5391 11.0485 17.0282 11.41 17.3849C11.7732 17.7358 12.2734 17.956 12.8271 17.956C13.3829 17.956 13.8844 17.7358 14.2483 17.3849C14.6105 17.0282 14.8334 16.5391 14.8334 15.9973C14.8334 15.4568 14.6105 14.9692 14.2483 14.6166ZM13.4493 12.3155C14.2546 12.4448 14.9793 12.821 15.5322 13.3643H15.5366C15.6244 13.4506 15.7103 13.544 15.7895 13.6387L17.1722 12.8588C16.9863 12.3112 16.9778 11.7387 17.1271 11.2023C17.3244 10.4833 17.8024 9.83967 18.519 9.43571L18.5427 9.42192C19.2515 9.03033 20.0573 8.94949 20.7849 9.14184C21.5215 9.33395 22.1861 9.8021 22.5998 10.5002V10.5016C23.0115 11.1954 23.0951 11.9921 22.8986 12.7083C22.7027 13.4268 22.2225 14.0747 21.5066 14.4758L21.3178 14.5847H21.2985C20.6364 14.8924 19.9081 14.9399 19.2393 14.7685C18.69 14.6263 18.1861 14.3282 17.7917 13.9033L16.4112 14.6808C16.5698 15.0902 16.6578 15.532 16.6578 15.9973C16.6578 16.4611 16.5698 16.9084 16.4112 17.3207L17.7917 18.0953C18.1861 17.6649 18.69 17.3723 19.2393 17.2301C19.9759 17.0337 20.7927 17.1174 21.5066 17.5228L21.5522 17.5437V17.5465C22.242 17.9531 22.7049 18.5829 22.8986 19.2934C23.0951 20.0052 23.0115 20.8022 22.5998 21.4974L22.5749 21.5462L22.572 21.5419C22.1583 22.2122 21.5066 22.6663 20.7871 22.8584C20.0488 23.0479 19.2322 22.9671 18.519 22.5674V22.5617C17.8024 22.1577 17.3244 21.5127 17.1271 20.7953C16.9778 20.2604 16.9863 19.6876 17.1722 19.1403L15.7895 18.3628C15.7103 18.4576 15.6244 18.5468 15.5366 18.6331L15.5322 18.6372C14.9793 19.1778 14.2546 19.554 13.4493 19.6793V21.2369C14.0232 21.3538 14.5376 21.6339 14.9407 22.0267L14.9427 22.031C15.4829 22.5548 15.8173 23.2847 15.8173 24.0872C15.8173 24.887 15.4829 25.6124 14.9427 26.1391L14.9407 26.1474C14.3968 26.674 13.6502 27 12.8271 27C12.0083 27 11.2607 26.674 10.7183 26.1474H10.7163V26.1391C10.1754 25.6124 9.84024 24.887 9.84024 24.0872C9.84024 23.2847 10.1754 22.5548 10.7163 22.031V22.0267H10.7183C11.1207 21.6339 11.6359 21.3538 12.2083 21.2369V19.6793C11.4022 19.554 10.6798 19.1778 10.1276 18.6372L10.1217 18.6331C9.43146 17.9574 9 17.0282 9 15.9973C9 14.9692 9.43146 14.04 10.1217 13.3643H10.1276C10.6798 12.821 11.4022 12.4448 12.2083 12.3155V10.7648C11.6359 10.6435 11.1207 10.3637 10.7183 9.97353H10.7163V9.96925C10.1754 9.43999 9.84024 8.71553 9.84024 7.91308C9.84024 7.11467 10.1754 6.38331 10.7163 5.85666L10.7183 5.85405C11.2607 5.32597 12.0083 5 12.8271 5C13.6502 5 14.3968 5.32597 14.9407 5.85405V5.85666H14.9427C15.4829 6.38331 15.8173 7.11467 15.8173 7.91308C15.8173 8.71553 15.4829 9.43999 14.9427 9.96925L14.9407 9.97353C14.5376 10.3637 14.0232 10.6435 13.4493 10.7648V12.3155ZM21.2159 11.2817L21.2044 11.2651C21.0134 10.9515 20.709 10.7425 20.3724 10.6519C20.0254 10.5627 19.6507 10.6005 19.3178 10.7857H19.32C18.9878 10.9695 18.7656 11.2705 18.6727 11.6077C18.5812 11.942 18.6212 12.3112 18.8122 12.6329L18.8185 12.6415C19.01 12.9589 19.3144 13.1719 19.6544 13.2582C19.9961 13.3517 20.3768 13.3127 20.7049 13.126L20.7227 13.1177C21.0456 12.9296 21.2607 12.6329 21.3507 12.3069C21.4422 11.9712 21.4059 11.6034 21.2159 11.2817Z" fill="#1A1919"/>
</svg>
