<svg width="24" height="24" viewBox="0 0 24 24" fill="none" xmlns="http://www.w3.org/2000/svg">
<path d="M12 24C18.6274 24 24 18.6274 24 12C24 5.37258 18.6274 0 12 0C5.37258 0 0 5.37258 0 12C0 18.6274 5.37258 24 12 24Z" fill="#13AA52"/>
<path d="M15.2075 10.5338C14.4496 7.18852 12.6582 6.08859 12.4653 5.66836C12.2544 5.37188 12.0407 4.84453 12.0407 4.84453C12.0371 4.83562 12.0315 4.81992 12.025 4.80469C12.0032 5.10117 11.9919 5.21555 11.7116 5.51461C11.2775 5.85398 9.05051 7.72266 8.86934 11.5233C8.70036 15.068 11.4299 17.1802 11.799 17.4495L11.841 17.4792V17.4766C11.8433 17.4945 11.9582 18.3204 12.0388 19.1955H12.328C12.3959 18.5769 12.4976 17.9625 12.6327 17.355L12.6561 17.3398C12.8212 17.2214 12.9787 17.0926 13.1275 16.9542L13.1443 16.939C13.929 16.2141 15.3397 14.5373 15.3259 11.8641C15.323 11.4181 15.2834 10.9732 15.2075 10.5338ZM12.0081 15.4481C12.0081 15.4481 12.0081 10.4766 12.1721 10.4775C12.3001 10.4775 12.4658 16.8902 12.4658 16.8902C12.238 16.8628 12.0081 15.8348 12.0081 15.4481Z" fill="white"/>
</svg>
