<svg width="24" height="24" viewBox="0 0 24 24" fill="none" xmlns="http://www.w3.org/2000/svg">
<g clip-path="url(#clip0_5512_1564)">
<path d="M11.4133 0H12.5867C13.0379 0.0736 13.488 0.151467 13.9403 0.2208C18.7104 0.96 22.6699 4.6848 23.6597 9.38667C23.7931 10.0267 23.888 10.6667 24 11.3067V12.6933C23.9232 13.1563 23.8539 13.6213 23.7685 14.08C23.3568 16.2933 22.4576 18.2677 20.9131 19.9275C20.8248 19.8465 20.7282 19.775 20.6251 19.7141C19.2619 19.0976 18.208 18.0896 17.2939 16.9493C16.8971 16.4533 16.4939 15.8912 16.4267 15.0891C17.2501 15.1573 17.9861 15.2277 18.7243 15.2693C18.8789 15.2779 19.0443 15.1755 19.1979 15.1243C19.1328 14.9707 19.1019 14.7861 18.9963 14.6699C18.051 13.6176 16.7743 12.9202 15.3781 12.6933C15.0677 12.6389 14.9387 12.5152 14.7968 12.2603C14.2709 11.3163 13.7163 10.3883 13.1616 9.46133C12.2763 7.9776 10.9141 7.25333 9.24693 7.008C8.95535 6.95399 8.6696 6.8722 8.3936 6.76373C7.95093 6.60907 7.5264 6.37013 7.072 6.28373C6.4704 6.1696 6.22613 6.4896 6.3776 7.09227C6.42616 7.24366 6.48977 7.38982 6.56747 7.52853C6.96747 8.35947 7.37067 9.1872 7.76853 10.0181C7.97333 10.4448 8.08853 10.9483 8.38827 11.2981C8.7264 11.6875 8.70827 12.0043 8.57173 12.4416C8.06293 14.0341 8.2912 15.5253 9.29813 16.8736C9.472 17.1061 9.68533 17.3963 10.0448 17.1797C10.3787 16.9781 10.2315 16.6784 10.1888 16.3733C10.0896 15.6704 10.0533 14.9589 9.9904 14.2507L10.1429 14.2187C10.2034 14.2714 10.2565 14.332 10.3008 14.3989C10.8896 15.6192 11.7589 16.6187 12.7541 17.5168C14.8075 19.3643 17.1477 20.6101 19.9168 20.9749C18.4235 22.2549 16.7392 23.1659 14.8224 23.616C14.0864 23.7888 13.3291 23.8773 12.5824 24.0043H11.4133C11.0656 23.9563 10.7179 23.9104 10.3701 23.8592C5.29813 23.104 1.45173 19.5136 0.311466 14.4587C0.180266 13.8773 0.0981333 13.2853 0 12.6976V11.3067C0.048 10.9973 0.0981329 10.688 0.142933 10.3787C0.839466 5.5136 4.29013 1.65333 9.07413 0.426667C9.84 0.229333 10.6325 0.139733 11.4133 0Z" fill="#E48E00"/>
<path d="M20.9132 19.9309L19.9223 20.9709C17.149 20.6093 14.813 19.3602 12.7596 17.5128C11.7612 16.6146 10.8919 15.6152 10.3063 14.3949C10.262 14.328 10.2089 14.2673 10.1484 14.2146L9.99591 14.2466C10.0588 14.9549 10.0951 15.6664 10.1943 16.3693C10.237 16.6744 10.3842 16.9741 10.0503 17.1757C9.69191 17.389 9.47858 17.1021 9.30364 16.8696C8.29671 15.5213 8.06844 14.0301 8.57724 12.4376C8.71591 12.0002 8.73191 11.6834 8.39378 11.2941C8.09511 10.9485 7.97884 10.4472 7.77404 10.0141C7.37618 9.18316 6.97298 8.35543 6.57298 7.5245C6.49528 7.38578 6.43167 7.23963 6.38311 7.08823C6.23164 6.48556 6.47591 6.16556 7.07751 6.2797C7.53191 6.3661 7.95644 6.60503 8.39911 6.7597C8.67511 6.86816 8.96086 6.94996 9.25244 7.00396C10.9196 7.25143 12.2818 7.9757 13.1671 9.4573C13.7218 10.3842 14.2764 11.3122 14.8023 12.2562C14.9442 12.5112 15.0732 12.6349 15.3836 12.6893C16.78 12.9164 18.0566 13.6142 19.0018 14.6669C19.1084 14.7832 19.1383 14.9677 19.2034 15.1213C19.0455 15.1725 18.8834 15.2749 18.7298 15.2664C17.9916 15.2248 17.2556 15.1544 16.4322 15.0861C16.4994 15.8882 16.9026 16.4504 17.2994 16.9464C18.2135 18.0866 19.2674 19.0946 20.6306 19.7112C20.7322 19.7744 20.8269 19.848 20.9132 19.9309V19.9309ZM8.66471 8.28183L9.32924 9.25676C9.63964 8.59543 9.41564 8.27223 8.66471 8.28183Z" fill="white"/>
<path d="M8.66455 8.28146C9.41122 8.27186 9.63949 8.59506 9.32909 9.25639L8.66455 8.28146Z" fill="#E48E00"/>
</g>
<defs>
<clipPath id="clip0_5512_1564">
<rect width="24" height="24" fill="white"/>
</clipPath>
</defs>
</svg>
