<svg width="24" height="24" viewBox="0 0 24 24" fill="none" xmlns="http://www.w3.org/2000/svg">
<circle cx="12" cy="12" r="11.25" fill="#FD4F00"/>
<path d="M10.1962 14.8461C10.1235 14.833 10.095 14.8281 10.0665 14.8228C9.14562 14.652 8.56347 14.0961 8.28762 13.2222C8.11565 12.6776 8.42812 12.2764 9.00085 12.25C9.46981 12.2284 9.79079 12.4972 10.0746 12.8101C10.4405 13.2134 10.776 13.6441 11.1353 14.0535C11.6528 14.6429 12.2624 15.0224 13.0966 14.9053C13.8446 14.8002 14.4964 14.5008 15.0636 14.008C15.1488 13.934 15.2424 13.8694 15.3321 13.8004C15.3133 13.7782 15.2944 13.7561 15.2756 13.7339C14.7994 13.8814 14.3139 13.9309 13.8177 13.906C13.0669 13.8684 12.3516 13.712 11.7115 13.3009C11.1274 12.9257 10.6967 12.4229 10.4919 11.7514C10.3265 11.2089 10.665 10.8294 11.2286 10.9078C11.4514 10.9388 11.639 11.0389 11.8073 11.1808C11.9444 11.2963 12.0759 11.4187 12.2157 11.5307C12.8735 12.058 13.7927 12.0873 14.6277 11.5148C13.255 11.5086 12.321 10.7554 11.5007 9.80088C11.1797 9.42728 10.8663 9.04699 10.5386 8.67931C9.90455 7.96779 9.20117 7.34094 8.23805 7.12711C7.00777 6.85393 5.82003 7.03247 4.67998 7.5533C4.45265 7.65713 4.23435 7.77787 4 7.97242C4.11602 7.97242 4.17931 7.97383 4.24247 7.97223C4.81727 7.95744 5.24801 8.21223 5.55867 8.68124C5.78477 9.02256 5.89131 9.40857 5.97252 9.8057C6.09305 10.3951 6.03066 10.9959 6.10027 11.588C6.27919 13.1101 7.05907 14.1723 8.5112 14.7162C9.04371 14.9157 9.58989 14.9821 10.1962 14.8461ZM6.5263 7.90273C6.29685 7.96046 6.11348 7.86807 5.92451 7.67732C6.24812 7.59689 6.53352 7.56571 6.84019 7.55368C6.81512 7.75228 6.69769 7.85965 6.5263 7.90273ZM14.0453 16.7911C14.0253 16.6446 13.8998 16.5801 13.8011 16.5034C13.3647 16.1646 12.8542 16.0446 12.313 16.0346C11.99 16.0287 11.6704 16.0047 11.3658 15.8917C11.2262 15.8399 11.07 15.7735 11.0735 15.5935C11.0771 15.4109 11.2363 15.3593 11.3813 15.3161C11.5 15.2807 11.6224 15.2582 11.7575 15.2267C11.4144 15.0073 11.0791 14.9769 10.6325 15.1561C9.92937 15.4381 9.23617 15.4046 8.53524 15.1522C8.1395 15.0097 7.7883 14.786 7.42265 14.5879L7.41266 14.5948C7.41743 14.5915 7.42246 14.5881 7.42214 14.5882C7.41312 14.5607 7.39674 14.56 7.37573 14.5754C7.38534 14.5837 7.39487 14.5921 7.40441 14.6005C7.70767 15.0962 8.11733 15.4951 8.5801 15.836C9.47136 16.4924 10.4449 16.8839 11.5839 16.7101C11.9518 16.654 12.3225 16.6105 12.6936 16.5807C13.1588 16.5432 13.602 16.6738 14.0453 16.7911ZM11.8978 9.67924C11.8731 9.66143 11.8495 9.61675 11.7992 9.66297C12.209 10.2159 12.7355 10.6235 13.3694 10.8801C14.3924 11.2942 15.4308 11.365 16.4928 10.9996C17.3172 10.7159 17.9101 10.9931 18.218 11.7916C18.2626 10.8648 17.7159 10.1895 16.8453 10.0571C16.3554 9.98263 15.9031 10.1447 15.4443 10.2775C14.1674 10.6468 12.9808 10.4644 11.8978 9.67924ZM18.2617 13.2942C18.4281 13.3082 18.5944 13.3232 18.7607 13.3378C18.3848 13.0084 17.9267 12.9823 17.4632 13.0086C16.7575 13.0486 16.249 13.4546 15.7854 13.9397C15.377 14.3672 15.0079 14.8468 14.3984 15.0186C14.4086 15.0369 14.4112 15.046 14.4141 15.046C14.4961 15.0472 14.5782 15.0511 14.66 15.0474C15.5453 15.0074 16.3793 14.8211 17.0427 14.1803C17.2516 13.9784 17.4385 13.7543 17.6402 13.5448C17.8084 13.3701 18.0124 13.2733 18.2617 13.2942ZM16.2052 12.1999C15.5445 12.2575 14.9706 12.5301 14.4316 12.8895C14.0167 13.1662 13.573 13.2971 13.0744 13.2105C12.9867 13.1953 12.8983 13.1839 12.8103 13.1707C12.8093 13.183 12.8083 13.1952 12.8073 13.2075C12.839 13.2238 12.8696 13.2428 12.9026 13.2559C12.9857 13.2887 13.0675 13.3281 13.1538 13.3486C14.1132 13.5761 15.0317 13.4595 15.8598 12.926C16.3817 12.5897 16.922 12.526 17.5076 12.6128C17.5668 12.6216 17.6257 12.6324 17.6851 12.6379C17.7402 12.6431 17.7977 12.6977 17.872 12.6386C17.36 12.2697 16.8086 12.1473 16.2052 12.1999ZM13.844 9.96296C14.1906 9.97492 14.5356 9.92966 14.8981 9.71486C14.7919 9.72424 14.7468 9.72405 14.7037 9.73267C14.2043 9.83193 13.756 9.72328 13.3567 9.40838C13.2102 9.29278 13.0613 9.18027 12.9129 9.06705C12.3247 8.61829 11.6502 8.46817 10.9124 8.4809C10.9243 8.5171 10.925 8.54192 10.9379 8.55477C11.7406 9.36472 12.6697 9.92259 13.844 9.96296ZM19.6539 14.1187C19.1571 13.6271 18.4904 13.5638 17.8735 13.9928C18.2818 14.0111 18.5884 14.141 18.837 14.3978C18.925 14.4887 19.0162 14.5778 19.1146 14.657C19.4905 14.9595 20.1277 14.974 20.5 14.6934C20.0627 14.5232 20.0627 14.5232 19.6539 14.1187ZM14.7061 17.8826C14.2694 17.072 13.5356 16.8891 12.688 16.9435C12.9386 17.0128 13.1726 17.1194 13.3873 17.269C13.5846 17.4064 13.7507 17.5765 13.9143 17.7507C14.2386 18.0959 14.7447 18.3077 15.08 18.2361C14.926 18.1393 14.7893 18.0371 14.7061 17.8826ZM18.7686 13.3545C18.7687 13.3493 18.7689 13.3441 18.7692 13.3387C18.7692 13.3387 18.7685 13.3394 18.7679 13.3401L18.7692 13.3387C18.7663 13.3385 18.7636 13.338 18.7607 13.3378C18.7624 13.3393 18.7642 13.3405 18.7659 13.3421C18.7668 13.3462 18.7677 13.3504 18.7686 13.3545ZM14.0695 16.8102C14.0638 16.807 14.058 16.8037 14.0523 16.8005C14.0531 16.8042 14.054 16.8078 14.0559 16.8108C14.0571 16.8127 14.0648 16.8105 14.0695 16.8102ZM14.0523 16.8005C14.0518 16.7979 14.0513 16.7952 14.0506 16.7926C14.0506 16.7926 14.0497 16.7938 14.0486 16.795L14.0506 16.7926C14.0489 16.792 14.0471 16.7917 14.0453 16.7911C14.0456 16.7933 14.0464 16.7951 14.0466 16.7974C14.0486 16.7984 14.0504 16.7995 14.0523 16.8005Z" fill="white"/>
</svg>
