<svg width="24" height="24" viewBox="0 0 24 24" fill="none" xmlns="http://www.w3.org/2000/svg">
<path d="M12 24C18.6274 24 24 18.6274 24 12C24 5.37258 18.6274 0 12 0C5.37258 0 0 5.37258 0 12C0 18.6274 5.37258 24 12 24Z" fill="#336791"/>
<path d="M17.7799 13.3613C17.7729 13.3401 17.7634 13.32 17.7514 13.3013C17.6819 13.1703 17.5129 13.1308 17.2479 13.1858C16.4209 13.3558 16.1009 13.2508 15.9849 13.1758C16.6559 12.1518 17.2074 10.9148 17.5054 9.76076C17.6414 9.23576 17.9044 7.99926 17.5664 7.39576C17.5449 7.35426 17.5198 7.31477 17.4914 7.27776C16.8459 6.45476 15.8999 6.01226 14.7549 6.00026C14.0074 5.99226 13.3699 6.17326 13.1969 6.23976C13.1113 6.22371 13.0252 6.21004 12.9389 6.19876C12.7223 6.15968 12.5029 6.13844 12.2829 6.13526C11.6919 6.12576 11.1814 6.26726 10.7579 6.55526C10.3299 6.39476 8.36437 5.73276 7.14787 6.59476C6.46737 7.07626 6.15437 7.93626 6.21487 9.15176C6.23537 9.56076 6.46837 10.8188 6.83637 12.0238C7.06637 12.7768 7.30537 13.3748 7.55287 13.8148C7.82937 14.3118 8.11587 14.6113 8.40987 14.7098C8.63387 14.7838 8.97637 14.7813 9.33887 14.3453C9.65332 13.9691 9.9776 13.6013 10.3114 13.2423C10.5289 13.3598 10.7644 13.4233 11.0064 13.4308V13.4328C10.9643 13.4829 10.9231 13.5337 10.8829 13.5853C10.7134 13.8003 10.6779 13.8453 10.1329 13.9578C9.97787 13.9898 9.56587 14.0743 9.55987 14.3633C9.55873 14.421 9.57454 14.4779 9.60537 14.5268C9.71887 14.7383 10.0664 14.8318 10.1129 14.8433C10.7804 15.0098 11.3654 14.8893 11.7989 14.5038C11.7904 15.6193 11.8374 16.7128 11.9714 17.0478C12.0819 17.3243 12.3524 17.9998 13.2064 17.9998C13.3314 17.9998 13.4694 17.9848 13.6209 17.9528C14.5119 17.7618 14.8989 17.3678 15.0484 16.4998C15.1234 16.0648 15.2494 15.0623 15.3179 14.4493C15.3264 14.4143 15.3359 14.3893 15.3464 14.3813C15.3464 14.3813 15.3814 14.3573 15.5599 14.3963C15.5671 14.3979 15.5745 14.399 15.5819 14.3998L15.7089 14.4108L15.7164 14.4113C16.1399 14.4308 16.6719 14.3403 16.9819 14.1963C17.3039 14.0463 17.8854 13.6798 17.7799 13.3613ZM10.1884 14.4818C10.1125 14.4626 10.0397 14.4327 9.97237 14.3928C10.0169 14.3733 10.0909 14.3478 10.2139 14.3228C10.8559 14.1903 10.9549 14.0973 11.1714 13.8228C11.2209 13.7593 11.2769 13.6878 11.3549 13.6013C11.3717 13.5825 11.3843 13.5603 11.3919 13.5363C11.4769 13.4608 11.5279 13.4813 11.6099 13.5153C11.6879 13.5478 11.7639 13.6453 11.7949 13.7528C11.8099 13.8038 11.8259 13.9003 11.7724 13.9753C11.3204 14.6083 10.6614 14.6003 10.1884 14.4818ZM11.2354 12.4878L11.2094 12.5578C11.1429 12.7363 11.0809 12.9023 11.0424 13.0598C10.7089 13.0588 10.3839 12.9158 10.1374 12.6583C9.82337 12.3308 9.68087 11.8753 9.74587 11.4083C9.83737 10.7543 9.80387 10.1848 9.78587 9.87876L9.77937 9.76876C9.92737 9.63776 10.6124 9.27076 11.1009 9.38276C11.3239 9.43376 11.4599 9.58576 11.5159 9.84676C11.8084 11.1988 11.5549 11.7618 11.3509 12.2148C11.3095 12.3044 11.2706 12.3955 11.2354 12.4878ZM15.3624 13.9633C15.3424 13.5473 15.4974 13.5038 15.6609 13.4583C15.6835 13.452 15.706 13.4451 15.7284 13.4378C15.7495 13.4565 15.7719 13.4737 15.7954 13.4893C16.0804 13.6773 16.5869 13.6998 17.2989 13.5563C17.1979 13.6448 17.0394 13.7563 16.8224 13.8568C16.6174 13.9518 16.2744 14.0233 15.9489 14.0388C15.5889 14.0558 15.4059 13.9988 15.3624 13.9633ZM15.6474 9.32776C15.6444 9.50276 15.6204 9.66226 15.5949 9.82826C15.5674 10.0073 15.5389 10.1923 15.5314 10.4168C15.5244 10.6348 15.5514 10.8618 15.5779 11.0818C15.6314 11.5253 15.6859 11.9818 15.4744 12.4323C15.4392 12.3701 15.4078 12.3058 15.3804 12.2398C15.331 12.1345 15.2767 12.0315 15.2179 11.9313C14.9099 11.3793 14.1894 10.0863 14.5579 9.55926C14.7479 9.28776 15.2289 9.27626 15.6474 9.32776ZM11.3534 9.77626C11.3409 9.86626 11.1984 9.98776 11.0429 9.98776C11.0293 9.9877 11.0158 9.9867 11.0024 9.98476C10.9008 9.96695 10.8102 9.9105 10.7494 9.82726C10.7264 9.79726 10.6894 9.73826 10.6964 9.68476C10.6987 9.66984 10.704 9.65554 10.712 9.64274C10.72 9.62993 10.7305 9.61888 10.7429 9.61026C10.8019 9.56576 10.9189 9.54926 11.0479 9.56726C11.2059 9.58926 11.3694 9.66376 11.3534 9.77626ZM15.3184 9.57076C15.3239 9.61076 15.2939 9.67076 15.2419 9.72576C15.188 9.7844 15.1163 9.8236 15.0379 9.83726C15.0254 9.83895 15.0129 9.83979 15.0004 9.83976C14.8539 9.83976 14.7299 9.72276 14.7204 9.65426C14.7084 9.56576 14.8524 9.49926 15.0004 9.47826C15.1494 9.45726 15.3064 9.48276 15.3184 9.57076Z" fill="white"/>
</svg>
