<svg width="24" height="24" viewBox="0 0 24 24" fill="none" xmlns="http://www.w3.org/2000/svg">
<circle cx="12" cy="12" r="11.25" fill="#79B2FF"/>
<path d="M19.207 12.9961V11.0039C19.207 10.8421 19.0759 10.7109 18.9141 10.7109H17.8178C17.6659 10.0205 17.3944 9.37495 17.0257 8.79726L17.8004 8.02249C17.9149 7.90805 17.9149 7.72254 17.8004 7.60822L16.3918 6.19956C16.2775 6.08512 16.0919 6.08512 15.9775 6.19956L15.2027 6.97433C14.625 6.6056 13.9795 6.33414 13.2891 6.18217V5.08594C13.2891 4.92412 13.1579 4.79297 12.9961 4.79297H11.0039C10.8421 4.79297 10.7109 4.92412 10.7109 5.08594V6.18377C10.0215 6.33643 9.3769 6.60835 8.80012 6.97719L8.02249 6.19956C7.90805 6.08512 7.72254 6.08512 7.60822 6.19956L6.19956 7.60822C6.08512 7.72254 6.08512 7.90805 6.19956 8.02249L6.9789 8.80183C6.61166 9.37839 6.34113 10.0223 6.18961 10.7109H5.08594C4.92412 10.7109 4.79297 10.8421 4.79297 11.0039V12.9961C4.79297 13.1579 4.92412 13.2891 5.08594 13.2891H6.19121C6.34353 13.9767 6.61441 14.6197 6.98177 15.1953L6.19956 15.9775C6.08512 16.0919 6.08512 16.2775 6.19956 16.3918L7.60822 17.8004C7.72254 17.9149 7.90805 17.9149 8.02249 17.8004L8.80469 17.0182C9.38033 17.3856 10.0233 17.6565 10.7109 17.8088V18.9141C10.7109 19.0759 10.8421 19.207 11.0039 19.207H12.9961C13.1579 19.207 13.2891 19.0759 13.2891 18.9141V17.8104C13.9777 17.6589 14.6216 17.3883 15.1981 17.0211L15.9775 17.8004C16.0918 17.9149 16.2773 17.9149 16.3918 17.8004L17.8004 16.3918C17.9149 16.2773 17.9149 16.0918 17.8004 15.9775L17.0228 15.1998C17.3917 14.6231 17.6636 13.9785 17.8162 13.2891H18.9141C19.0759 13.2891 19.207 13.1579 19.207 12.9961Z" fill="white"/>
<path d="M12.9961 19.5H11.0039C10.6808 19.5 10.418 19.2371 10.418 18.9141V18.0394C9.86671 17.8953 9.34062 17.6772 8.84875 17.3887L8.22974 18.0077C8.00121 18.2361 7.6295 18.2361 7.40108 18.0077L5.99231 16.5989C5.76389 16.3705 5.76389 15.9988 5.99231 15.7704L6.61132 15.1512C6.32281 14.6594 6.10469 14.1333 5.96061 13.582H5.08594C4.76287 13.582 4.5 13.3192 4.5 12.9961V11.0039C4.5 10.6808 4.76287 10.418 5.08594 10.418H5.95866C6.10229 9.86579 6.32018 9.33879 6.60869 8.84601L5.99231 8.22963C5.76389 8.00121 5.76389 7.6295 5.99231 7.40108L7.40108 5.99231C7.6295 5.76389 8.00121 5.76389 8.22974 5.99231L8.84395 6.60663C9.33719 6.31675 9.86488 6.09771 10.418 5.95317V5.08594C10.418 4.76287 10.6808 4.5 11.0039 4.5H12.9961C13.3192 4.5 13.582 4.76287 13.582 5.08594V5.95123C14.1359 6.09531 14.6646 6.31412 15.1587 6.60388L15.7704 5.99231C15.9988 5.76389 16.3705 5.76389 16.5989 5.99231L18.0077 7.40108C18.2361 7.6295 18.2361 8.00121 18.0077 8.22974L17.3961 8.84132C17.6859 9.33536 17.9047 9.86407 18.0488 10.418H18.9141C19.2371 10.418 19.5 10.6808 19.5 11.0039V12.9961C19.5 13.3192 19.2371 13.582 18.9141 13.582H18.0468C17.9023 14.1351 17.6831 14.6628 17.3934 15.1561L18.0076 15.7704C18.236 15.9988 18.236 16.3705 18.0076 16.5989L16.5989 18.0077C16.3705 18.2361 15.9988 18.2361 15.7703 18.0077L15.154 17.3913C14.6611 17.6798 14.1341 17.8977 13.582 18.0413V18.9141C13.582 19.2371 13.3192 19.5 12.9961 19.5ZM8.80481 16.7253C8.85928 16.7253 8.91387 16.7404 8.96239 16.7713C9.51984 17.1272 10.1295 17.38 10.7742 17.5227C10.9085 17.5524 11.0039 17.6713 11.0039 17.8088V18.9141H12.9961V17.8104C12.9961 17.6728 13.0918 17.5538 13.2261 17.5243C13.8718 17.3822 14.4823 17.1297 15.0407 16.774C15.1565 16.7002 15.3081 16.7168 15.4053 16.814L16.1846 17.5933L17.5933 16.1846L16.8157 15.407C16.7184 15.3097 16.7019 15.1579 16.7761 15.042C17.1332 14.4835 17.3871 13.8724 17.5302 13.2258C17.5599 13.0915 17.6789 12.9961 17.8162 12.9961H18.9141V11.0039H17.8178C17.6803 11.0039 17.5613 10.9082 17.5317 10.7739C17.3893 10.1264 17.1359 9.51434 16.7787 8.95496C16.7048 8.83903 16.7214 8.68739 16.8185 8.59012L17.5933 7.81535L16.1846 6.4067L15.4099 7.18146C15.3127 7.27863 15.161 7.29522 15.045 7.22129C14.4857 6.86412 13.8736 6.61086 13.2261 6.46827C13.0918 6.43874 12.9961 6.31972 12.9961 6.18217V5.08594H11.0039V6.18377C11.0039 6.32121 10.9085 6.44012 10.7743 6.46987C10.1276 6.61304 9.51652 6.86675 8.95805 7.22392C8.84223 7.29808 8.69025 7.2816 8.59309 7.18433L7.81535 6.4067L6.4067 7.81535L7.18604 8.59481C7.2832 8.69186 7.2998 8.84349 7.22598 8.9593C6.8703 9.51766 6.61784 10.1282 6.47571 10.7739C6.44618 10.9082 6.32716 11.0039 6.18961 11.0039H5.08594V12.9961H6.19121C6.32865 12.9961 6.44756 13.0917 6.47731 13.2258C6.62002 13.8707 6.87293 14.4802 7.22873 15.0376C7.30266 15.1535 7.28618 15.3053 7.1889 15.4024L6.4067 16.1846L7.81535 17.5934L8.59756 16.8111C8.65421 16.7546 8.72916 16.7253 8.80481 16.7253Z" fill="#79B2FF"/>
<path d="M15.9844 12C15.9844 14.2005 14.2005 15.9844 12 15.9844C9.79953 15.9844 8.01562 14.2005 8.01562 12C8.01562 9.79953 9.79953 8.01562 12 8.01562C14.2005 8.01562 15.9844 9.79953 15.9844 12Z" fill="white"/>
<path d="M12 16.2754C10.9047 16.2754 9.80937 15.8584 8.97544 15.0246C7.30769 13.3568 7.30769 10.6432 8.97544 8.97544C9.64812 8.30287 10.5011 7.88219 11.442 7.75905C12.3531 7.6398 13.2936 7.82039 14.0908 8.26739C14.2319 8.34647 14.2822 8.525 14.2031 8.66611C14.1239 8.80733 13.9454 8.85757 13.8043 8.77837C12.3696 7.97385 10.5543 8.22528 9.38983 9.38983C7.95051 10.829 7.95051 13.171 9.38983 14.6103C10.1094 15.3298 11.0548 15.6896 12 15.6897C12.9454 15.6898 13.8906 15.33 14.6103 14.6103C15.7356 13.485 16.0142 11.7731 15.3036 10.3504C15.2312 10.2057 15.2899 10.0297 15.4347 9.95734C15.5794 9.88502 15.7554 9.94384 15.8277 10.0886C16.6512 11.737 16.3285 13.7207 15.0246 15.0246C14.1906 15.8584 13.0953 16.2754 12 16.2754Z" fill="#79B2FF"/>
<path d="M14.8814 9.53941C14.804 9.53941 14.7287 9.50828 14.6739 9.45346C14.6194 9.39899 14.5884 9.32368 14.5884 9.24644C14.5884 9.1693 14.6194 9.09377 14.6739 9.0393C14.7284 8.98471 14.804 8.95347 14.8814 8.95347C14.9584 8.95347 15.0339 8.98471 15.0885 9.0393C15.143 9.09377 15.1744 9.1693 15.1744 9.24644C15.1744 9.32368 15.143 9.39899 15.0885 9.45346C15.0337 9.50828 14.9584 9.53941 14.8814 9.53941Z" fill="#79B2FF"/>
<path d="M13.2154 10.1347L11.5865 11.7636L10.7846 10.9617L9.73384 12.0125L11.5865 13.8653L14.2662 11.1856L13.2154 10.1347Z" fill="white"/>
<path d="M11.5865 14.1582C11.5088 14.1582 11.4343 14.1273 11.3794 14.0724L9.5267 12.2196C9.41226 12.1053 9.41226 11.9198 9.5267 11.8053L10.5775 10.7544C10.6324 10.6995 10.7069 10.6687 10.7846 10.6687C10.8623 10.6687 10.937 10.6995 10.9919 10.7544L11.5865 11.3492L13.0082 9.92759C13.1226 9.81315 13.3081 9.81315 13.4225 9.92759L14.4734 10.9785C14.5877 11.0928 14.5877 11.2783 14.4734 11.3928L11.7938 14.0724C11.7387 14.1273 11.6642 14.1582 11.5865 14.1582ZM10.1481 12.0125L11.5865 13.4509L13.8519 11.1856L13.2154 10.5491L11.7938 11.9707C11.7388 12.0256 11.6642 12.0565 11.5865 12.0565C11.5088 12.0565 11.4343 12.0256 11.3794 11.9707L10.7846 11.376L10.1481 12.0125Z" fill="#79B2FF"/>
</svg>
