<svg width="24" height="24" viewBox="0 0 24 24" fill="none" xmlns="http://www.w3.org/2000/svg">
<circle cx="12" cy="12" r="11.25" fill="#DDE4EE"/>
<path d="M10.5534 7.30878C11.1097 6.73266 11.8843 6.37537 12.7409 6.37537C13.8796 6.37537 14.873 7.00643 15.4021 7.94326C15.8618 7.73909 16.3707 7.62553 16.9062 7.62553C18.96 7.62553 20.625 9.29477 20.625 11.3538C20.625 13.4131 18.96 15.0823 16.9062 15.0823C16.6555 15.0823 16.4105 15.0574 16.1737 15.0098C15.7078 15.8357 14.82 16.3938 13.8009 16.3938C13.3743 16.3938 12.9709 16.2958 12.6116 16.1217C12.1393 17.2258 11.039 18 9.75652 18C8.42099 18 7.28279 17.1601 6.84589 15.9823C6.65496 16.0225 6.45715 16.0436 6.25418 16.0436C4.66408 16.0436 3.375 14.7492 3.375 13.1522C3.375 12.0821 3.95418 11.1477 4.81471 10.6478C4.63754 10.2426 4.53901 9.79543 4.53901 9.3253C4.53901 7.48877 6.03917 6 7.88949 6C8.97584 6 9.9413 6.51335 10.5534 7.30878Z" fill="#00A1E0"/>
<path d="M5.8735 12.2229C5.86269 12.251 5.87743 12.2568 5.88087 12.2617C5.91331 12.2852 5.94623 12.302 5.97941 12.3208C6.15535 12.4136 6.32146 12.4407 6.49519 12.4407C6.84903 12.4407 7.06871 12.2537 7.06871 11.9525V11.9467C7.06871 11.6683 6.82077 11.5672 6.58807 11.4941L6.55785 11.4844C6.3824 11.4277 6.23103 11.3789 6.23103 11.2641V11.258C6.23103 11.1598 6.31949 11.0875 6.45661 11.0875C6.60896 11.0875 6.78981 11.1378 6.90629 11.2018C6.90629 11.2018 6.94044 11.2238 6.95297 11.1908C6.95985 11.1732 7.01883 11.0155 7.02497 10.9984C7.03161 10.9798 7.01981 10.9661 7.00777 10.9588C6.87483 10.8785 6.69103 10.8235 6.50084 10.8235L6.46545 10.8238C6.14159 10.8238 5.91552 11.0182 5.91552 11.2968V11.3027C5.91552 11.5965 6.16493 11.6917 6.39862 11.7581L6.43621 11.7696C6.6065 11.8216 6.7532 11.8663 6.7532 11.9855V11.9914C6.7532 12.1003 6.65786 12.1814 6.50403 12.1814C6.44432 12.1814 6.25388 12.1802 6.04821 12.051C6.02339 12.0366 6.00889 12.0261 5.98973 12.0146C5.97965 12.0082 5.95434 11.9972 5.94328 12.0305L5.8735 12.2229Z" fill="white"/>
<path d="M11.0537 12.2229C11.0428 12.251 11.0576 12.2568 11.061 12.2617C11.0935 12.2852 11.1264 12.302 11.1596 12.3208C11.3355 12.4136 11.5016 12.4407 11.6753 12.4407C12.0292 12.4407 12.2489 12.2537 12.2489 11.9525V11.9467C12.2489 11.6683 12.0009 11.5672 11.7682 11.4941L11.738 11.4844C11.5626 11.4277 11.4112 11.3789 11.4112 11.2641V11.258C11.4112 11.1598 11.4997 11.0875 11.6368 11.0875C11.7891 11.0875 11.97 11.1378 12.0864 11.2018C12.0864 11.2018 12.1206 11.2238 12.1331 11.1908C12.14 11.1732 12.199 11.0155 12.2051 10.9984C12.2118 10.9798 12.2 10.9661 12.1879 10.9588C12.055 10.8785 11.8712 10.8235 11.681 10.8235L11.6456 10.8238C11.3217 10.8238 11.0957 11.0182 11.0957 11.2968V11.3027C11.0957 11.5965 11.3451 11.6917 11.5788 11.7581L11.6164 11.7696C11.7867 11.8216 11.9336 11.8663 11.9336 11.9855V11.9914C11.9336 12.1003 11.838 12.1814 11.6842 12.1814C11.6245 12.1814 11.434 12.1802 11.2284 12.051C11.2036 12.0366 11.1888 12.0265 11.1701 12.0146C11.1637 12.0104 11.1338 11.9989 11.1234 12.0305L11.0537 12.2229Z" fill="white"/>
<path d="M14.59 11.6331C14.59 11.8033 14.5581 11.9374 14.4952 12.0321C14.433 12.1259 14.3389 12.1716 14.2077 12.1716C14.0762 12.1716 13.9826 12.1261 13.9214 12.0321C13.8595 11.9376 13.828 11.8033 13.828 11.6331C13.828 11.4631 13.8595 11.3292 13.9214 11.2355C13.9826 11.1427 14.0762 11.0975 14.2077 11.0975C14.3389 11.0975 14.433 11.1427 14.4954 11.2355C14.5581 11.3292 14.59 11.4631 14.59 11.6331ZM14.8854 11.3175C14.8564 11.2201 14.8112 11.1341 14.751 11.0626C14.6908 10.9908 14.6146 10.9331 14.5242 10.8911C14.434 10.8494 14.3273 10.8281 14.2077 10.8281C14.0877 10.8281 13.9811 10.8494 13.8909 10.8911C13.8005 10.9331 13.7243 10.9908 13.6639 11.0626C13.6039 11.1344 13.5587 11.2203 13.5295 11.3175C13.5007 11.4145 13.4862 11.5205 13.4862 11.6331C13.4862 11.7456 13.5007 11.8519 13.5295 11.9486C13.5587 12.0458 13.6037 12.1318 13.6641 12.2036C13.7243 12.2754 13.8007 12.3327 13.8909 12.3735C13.9813 12.4143 14.0877 12.4351 14.2077 12.4351C14.3273 12.4351 14.4337 12.4143 14.5242 12.3735C14.6143 12.3327 14.6908 12.2754 14.751 12.2036C14.8112 12.132 14.8564 12.046 14.8854 11.9486C14.9144 11.8516 14.9289 11.7454 14.9289 11.6331C14.9289 11.5207 14.9144 11.4145 14.8854 11.3175Z" fill="white"/>
<path d="M17.3109 12.1261C17.301 12.0975 17.2733 12.1083 17.2733 12.1083C17.2303 12.1246 17.1846 12.1398 17.1359 12.1474C17.0865 12.1549 17.0322 12.1588 16.974 12.1588C16.831 12.1588 16.7174 12.1166 16.6361 12.0331C16.5545 11.9495 16.5088 11.8145 16.5093 11.6318C16.5098 11.4655 16.5501 11.3405 16.6226 11.2452C16.6946 11.1505 16.8042 11.1019 16.9504 11.1019C17.0723 11.1019 17.1651 11.1158 17.2625 11.1463C17.2625 11.1463 17.2858 11.1563 17.2969 11.126C17.3227 11.0547 17.3418 11.0037 17.3693 10.9253C17.3772 10.9031 17.358 10.8935 17.3512 10.8908C17.3128 10.876 17.2224 10.8518 17.1541 10.8415C17.0902 10.8317 17.0155 10.8266 16.9324 10.8266C16.8084 10.8266 16.6978 10.8476 16.6032 10.8896C16.5088 10.9314 16.4287 10.989 16.3653 11.0608C16.3019 11.1326 16.2537 11.2186 16.2216 11.3158C16.1896 11.4127 16.1734 11.5192 16.1734 11.6318C16.1734 11.8753 16.2395 12.0721 16.37 12.2162C16.5007 12.3608 16.697 12.4343 16.9531 12.4343C17.1045 12.4343 17.2598 12.4038 17.3713 12.3601C17.3713 12.3601 17.3927 12.3498 17.3834 12.3252L17.3109 12.1261Z" fill="white"/>
<path d="M17.8276 11.47C17.8417 11.3755 17.8679 11.2968 17.9085 11.2355C17.9697 11.1425 18.0631 11.0915 18.1943 11.0915C18.3255 11.0915 18.4122 11.1427 18.4744 11.2355C18.5157 11.2968 18.5336 11.3789 18.5407 11.47H17.8276ZM18.8221 11.2622C18.797 11.1681 18.7349 11.0731 18.6941 11.0297C18.6297 10.9608 18.5668 10.9127 18.5044 10.8858C18.4228 10.8511 18.325 10.8282 18.2179 10.8282C18.093 10.8282 17.9798 10.8489 17.8879 10.8919C17.7957 10.9349 17.7183 10.9935 17.6576 11.0665C17.5969 11.1393 17.5512 11.226 17.5222 11.3244C17.493 11.4224 17.4782 11.5291 17.4782 11.6417C17.4782 11.7562 17.4935 11.8629 17.5237 11.9589C17.5542 12.0556 17.6028 12.1409 17.6687 12.2114C17.7343 12.2825 17.8188 12.3382 17.92 12.377C18.0205 12.4156 18.1427 12.4356 18.283 12.4354C18.5717 12.4344 18.7238 12.3704 18.7865 12.336C18.7975 12.3299 18.8081 12.3191 18.7948 12.2884L18.7295 12.1064C18.7196 12.0793 18.6919 12.0893 18.6919 12.0893C18.6204 12.1157 18.5186 12.1631 18.2815 12.1626C18.1265 12.1624 18.0115 12.1169 17.9395 12.0459C17.8655 11.9731 17.8294 11.8661 17.823 11.7152L18.8228 11.7162C18.8228 11.7162 18.8491 11.7157 18.8518 11.6903C18.8528 11.6795 18.8862 11.4861 18.8221 11.2622Z" fill="white"/>
<path d="M9.82021 11.47C9.83446 11.3755 9.86051 11.2968 9.90105 11.2355C9.96224 11.1425 10.0556 11.0915 10.1868 11.0915C10.3181 11.0915 10.4048 11.1427 10.4672 11.2355C10.5082 11.2968 10.5262 11.3789 10.5333 11.47H9.82021ZM10.8144 11.2622C10.7894 11.1681 10.7274 11.0731 10.6866 11.0297C10.6223 10.9608 10.5594 10.9127 10.4969 10.8858C10.4154 10.8511 10.3176 10.8282 10.2104 10.8282C10.0858 10.8282 9.97231 10.8489 9.88041 10.8919C9.78826 10.9349 9.71086 10.9935 9.65017 11.0665C9.58947 11.1393 9.54377 11.226 9.51477 11.3244C9.48578 11.4224 9.47079 11.5291 9.47079 11.6417C9.47079 11.7562 9.48602 11.8629 9.51625 11.9589C9.54672 12.0556 9.59537 12.1409 9.66122 12.2114C9.72683 12.2825 9.81136 12.3382 9.9126 12.377C10.0131 12.4156 10.1352 12.4356 10.2755 12.4354C10.5643 12.4344 10.7164 12.3704 10.779 12.336C10.7901 12.3299 10.8007 12.3191 10.7874 12.2884L10.7223 12.1064C10.7122 12.0793 10.6844 12.0893 10.6844 12.0893C10.6129 12.1157 10.5114 12.1631 10.2738 12.1626C10.119 12.1624 10.004 12.1169 9.93201 12.0459C9.85805 11.9731 9.82193 11.8661 9.81554 11.7152L10.8154 11.7162C10.8154 11.7162 10.8417 11.7157 10.8444 11.6903C10.8454 11.6795 10.8788 11.4861 10.8144 11.2622Z" fill="white"/>
<path d="M7.65902 12.1207C7.61995 12.0897 7.61454 12.0818 7.60127 12.0618C7.58162 12.0313 7.57154 11.9878 7.57154 11.9326C7.57154 11.8452 7.60054 11.7824 7.66074 11.7402C7.66 11.7404 7.74674 11.6657 7.9507 11.6684C8.09396 11.6703 8.22198 11.6913 8.22198 11.6913V12.1431C8.22198 12.1431 8.09518 12.1702 7.95217 12.1788C7.74871 12.191 7.65828 12.1204 7.65902 12.1207ZM8.05685 11.4224C8.01631 11.4195 7.96372 11.4178 7.90082 11.4178C7.81506 11.4178 7.73225 11.4285 7.6546 11.4493C7.57646 11.4701 7.50618 11.5025 7.44573 11.5455C7.38504 11.5888 7.33614 11.644 7.30075 11.7094C7.26537 11.7749 7.24743 11.852 7.24743 11.9385C7.24743 12.0264 7.26266 12.1028 7.29313 12.1654C7.3236 12.2281 7.36759 12.2804 7.42361 12.3207C7.47915 12.361 7.54771 12.3905 7.62732 12.4084C7.70571 12.4262 7.79466 12.4352 7.89197 12.4352C7.99444 12.4352 8.09666 12.4269 8.19569 12.4101C8.29373 12.3935 8.41414 12.3693 8.44756 12.3617C8.48073 12.3539 8.51759 12.3439 8.51759 12.3439C8.54241 12.3378 8.54044 12.3114 8.54044 12.3114L8.53995 11.4027C8.53995 11.2034 8.48638 11.0556 8.38096 10.964C8.27604 10.8727 8.12148 10.8265 7.9217 10.8265C7.84676 10.8265 7.7261 10.8368 7.65386 10.8512C7.65386 10.8512 7.43541 10.8932 7.34547 10.9631C7.34547 10.9631 7.32581 10.9753 7.33663 11.0026L7.4074 11.1917C7.41624 11.2161 7.44008 11.2078 7.44008 11.2078C7.44008 11.2078 7.4477 11.2048 7.45654 11.1997C7.64895 11.0957 7.89221 11.0989 7.89221 11.0989C8.00033 11.0989 8.08339 11.1203 8.13942 11.1631C8.19397 11.2046 8.22173 11.2674 8.22173 11.3997V11.4417C8.13573 11.4295 8.05685 11.4224 8.05685 11.4224Z" fill="white"/>
<path d="M16.1212 10.9104C16.1288 10.8879 16.1128 10.8772 16.1062 10.8748C16.0892 10.8682 16.0042 10.8503 15.9386 10.8462C15.813 10.8386 15.7432 10.8596 15.6808 10.8875C15.6189 10.9153 15.5501 10.9602 15.5118 11.0113V10.8904C15.5118 10.8735 15.4997 10.8601 15.483 10.8601H15.2267C15.21 10.8601 15.198 10.8735 15.198 10.8904V12.3726C15.198 12.3892 15.2117 12.4028 15.2284 12.4028H15.4911C15.5078 12.4028 15.5213 12.3892 15.5213 12.3726V11.6321C15.5213 11.5327 15.5324 11.4335 15.5545 11.3713C15.5761 11.3097 15.6056 11.2604 15.642 11.225C15.6786 11.1898 15.7201 11.1651 15.7656 11.1512C15.812 11.137 15.8634 11.1324 15.8998 11.1324C15.9521 11.1324 16.0096 11.1458 16.0096 11.1458C16.0288 11.148 16.0396 11.1363 16.046 11.119C16.0632 11.0736 16.1118 10.9375 16.1212 10.9104Z" fill="white"/>
<path d="M13.6555 10.2235C13.6235 10.2137 13.5945 10.2071 13.5567 10.2C13.5184 10.1932 13.4727 10.1898 13.4208 10.1898C13.24 10.1898 13.0974 10.2406 12.9974 10.3407C12.8979 10.4403 12.8303 10.592 12.7964 10.7915L12.7841 10.8587H12.5571C12.5571 10.8587 12.5296 10.8577 12.5237 10.8875L12.4866 11.0944C12.4839 11.1139 12.4925 11.1264 12.519 11.1264H12.7399L12.5158 12.3699C12.4984 12.4701 12.4782 12.5524 12.4558 12.6149C12.434 12.6764 12.4126 12.7226 12.3861 12.7563C12.3605 12.7885 12.3364 12.8124 12.2946 12.8264C12.2602 12.8378 12.2204 12.8432 12.1769 12.8432C12.1529 12.8432 12.1207 12.8393 12.0968 12.8344C12.0733 12.8298 12.0607 12.8247 12.0428 12.8171C12.0428 12.8171 12.017 12.8073 12.0067 12.833C11.9986 12.8542 11.9396 13.0152 11.9324 13.0349C11.9256 13.0547 11.9354 13.0701 11.9479 13.0747C11.9774 13.085 11.9993 13.0918 12.0393 13.1014C12.0949 13.1143 12.1418 13.115 12.1858 13.115C12.2777 13.115 12.3617 13.1021 12.4313 13.0772C12.5011 13.052 12.562 13.0083 12.6161 12.9492C12.6743 12.8852 12.7109 12.8183 12.7458 12.7267C12.7805 12.6364 12.8102 12.524 12.8338 12.3931L13.0591 11.1264H13.3884C13.3884 11.1264 13.4161 11.1273 13.4218 11.0973L13.4591 10.8907C13.4616 10.8709 13.4533 10.8587 13.4265 10.8587H13.1068C13.1085 10.8516 13.123 10.7398 13.1596 10.6345C13.1753 10.5898 13.2048 10.5534 13.2296 10.5285C13.2542 10.5041 13.2825 10.4867 13.3134 10.4767C13.3451 10.4665 13.3813 10.4616 13.4208 10.4616C13.4508 10.4616 13.4805 10.465 13.5029 10.4696C13.5338 10.4762 13.5459 10.4797 13.554 10.4821C13.5867 10.4919 13.5911 10.4823 13.5975 10.4667L13.6739 10.2581C13.6818 10.2357 13.6624 10.2262 13.6555 10.2235Z" fill="white"/>
<path d="M9.18879 12.3726C9.18879 12.3892 9.17675 12.4027 9.16004 12.4027H8.8949C8.87819 12.4027 8.8664 12.3892 8.8664 12.3726V10.2518C8.8664 10.2352 8.87819 10.2218 8.8949 10.2218H9.16004C9.17675 10.2218 9.18879 10.2352 9.18879 10.2518V12.3726Z" fill="white"/>
</svg>
