<svg width="24" height="24" viewBox="0 0 24 24" fill="none" xmlns="http://www.w3.org/2000/svg">
<circle cx="12" cy="12" r="11.25" fill="#EBE4CC"/>
<path d="M16.25 6H7.75001C7.05963 6.00049 6.50039 6.56053 6.50088 7.2509C6.50093 7.30495 6.50447 7.35893 6.5115 7.41251C6.52242 7.49559 6.57422 7.56768 6.6495 7.6045C6.72502 7.64058 6.81344 7.6372 6.88601 7.5955C6.99652 7.53147 7.12228 7.49847 7.25002 7.5H9.03002C9.35116 7.50119 9.6364 7.70538 9.74102 8.00899L9.78351 8.14598C9.95566 8.65511 10.4326 8.99835 10.97 8.99997H16.75C16.8811 9.00009 17.0099 9.03456 17.1235 9.09998C17.1619 9.12236 17.2056 9.13408 17.25 9.13399C17.3881 9.13399 17.5 9.02205 17.5 8.88398V7.24999C17.5 6.55964 16.9404 6 16.25 6Z" fill="#FFA000"/>
<path d="M11.75 16.5C11.6119 16.5 11.5 16.388 11.5 16.25V15.25C11.5 15.1119 11.6119 15 11.75 15C11.8881 15 12 15.1119 12 15.25V16.25C12 16.3881 11.8881 16.5 11.75 16.5Z" fill="#607D8B"/>
<path d="M17.75 17.5H12.75C12.6119 17.5 12.5 17.388 12.5 17.25C12.5 17.1119 12.6119 17 12.75 17H17.75C17.8881 17 18 17.1119 18 17.25C18 17.388 17.8881 17.5 17.75 17.5Z" fill="#607D8B"/>
<path d="M10.75 17.5H6.25001C6.11194 17.5 6 17.388 6 17.25C6 17.1119 6.11194 17 6.25001 17H10.75C10.8881 17 11 17.1119 11 17.25C11 17.388 10.8881 17.5 10.75 17.5Z" fill="#607D8B"/>
<path d="M17.3765 8.66899C17.1863 8.5581 16.9701 8.49979 16.75 8.49998H10.97C10.6488 8.49878 10.3636 8.2946 10.259 7.99099L10.217 7.854C10.0445 7.34489 9.56751 7.00172 9.03 7.00001H7.24999C7.03505 6.99801 6.8235 7.05379 6.6375 7.16151C6.24408 7.38265 6.00042 7.79868 6 8.25V14.25C6 14.9403 6.55964 15.5 7.24999 15.5H16.75C17.4404 15.5 18 14.9403 18 14.25V9.74999C18.0014 9.30384 17.7634 8.89117 17.3765 8.66899Z" fill="#FFC107"/>
<path d="M12.75 16.5H12.5V16.25C12.5 16.1119 12.3881 16 12.25 16H11.25C11.1119 16 11 16.1119 11 16.25V16.5H10.75C10.6119 16.5 10.5 16.6119 10.5 16.75V17.75C10.5 17.8881 10.6119 18 10.75 18H12.75C12.8881 18 13 17.8881 13 17.75V16.75C13 16.6119 12.8881 16.5 12.75 16.5Z" fill="#455A64"/>
<path d="M16.75 15.5H7.24999C6.55964 15.5 6 14.9403 6 14.25V8.25C6 7.55965 6.55964 7.00001 7.24999 7.00001H9.02948C9.56733 7.00012 10.0448 7.34428 10.215 7.85451L10.259 7.98752C10.3612 8.29364 10.6477 8.50005 10.9705 8.50003L16.75 8.49998C17.4404 8.49996 18 9.05964 18 9.74999V14.25C18 14.9403 17.4404 15.5 16.75 15.5ZM7.25002 7.5C6.8358 7.5 6.49999 7.83579 6.49999 8.25V14.25C6.49999 14.6642 6.83578 15 7.24999 15H16.75C17.1642 15 17.5 14.6642 17.5 14.25V9.74999C17.5 9.33578 17.1642 8.99997 16.75 8.99997L10.9705 8.99999C10.4327 8.99988 9.95519 8.65572 9.78501 8.14549L9.74051 8.01248C9.63837 7.70655 9.35205 7.50018 9.02951 7.5H7.25002Z" fill="black"/>
<path d="M17.25 8.99999C17.1119 8.99999 17 8.88806 17 8.74999V7.24999C17 6.83578 16.6642 6.49999 16.25 6.49999H7.75001C7.3358 6.49999 7.00001 6.83578 7.00001 7.24999C7.00001 7.38808 6.88807 7.5 6.75 7.5C6.61193 7.5 6.49999 7.38806 6.49999 7.24999C6.49999 6.55964 7.05963 6 7.75001 6H16.25C16.9404 6 17.5 6.55964 17.5 7.24999V8.74999C17.5 8.88808 17.3881 8.99999 17.25 8.99999Z" fill="black"/>
<path d="M12.75 18H10.75C10.6119 18 10.5 17.8881 10.5 17.75V16.75C10.5 16.6119 10.6119 16.5 10.75 16.5H11V16.25C11 16.1119 11.1119 16 11.25 16H12.25C12.3881 16 12.5 16.1119 12.5 16.25V16.5H12.75C12.8881 16.5 13 16.6119 13 16.75V17.75C13 17.8881 12.8881 18 12.75 18ZM11 17.5H12.5V17H12.25C12.1119 17 12 16.8881 12 16.75V16.5H11.5V16.75C11.5 16.8881 11.388 17 11.25 17H11L11 17.5Z" fill="black"/>
<path d="M11.75 16.5C11.6119 16.5 11.5 16.388 11.5 16.25V15.25C11.5 15.1119 11.6119 15 11.75 15C11.8881 15 12 15.1119 12 15.25V16.25C12 16.3881 11.8881 16.5 11.75 16.5Z" fill="black"/>
<path d="M17.75 17.5H12.75C12.6119 17.5 12.5 17.388 12.5 17.25C12.5 17.1119 12.6119 17 12.75 17H17.75C17.8881 17 18 17.1119 18 17.25C18 17.388 17.8881 17.5 17.75 17.5Z" fill="black"/>
<path d="M10.75 17.5H6.25001C6.11194 17.5 6 17.388 6 17.25C6 17.1119 6.11194 17 6.25001 17H10.75C10.8881 17 11 17.1119 11 17.25C11 17.388 10.8881 17.5 10.75 17.5Z" fill="black"/>
</svg>
