<svg width="24" height="24" viewBox="0 0 24 24" fill="none" xmlns="http://www.w3.org/2000/svg">
<path d="M12 24C18.6274 24 24 18.6274 24 12C24 5.37258 18.6274 0 12 0C5.37258 0 0 5.37258 0 12C0 18.6274 5.37258 24 12 24Z" fill="white"/>
<g clip-path="url(#clip0_5512_1589)">
<path d="M17.1054 15.5389L14.1862 13.8926C13.7761 13.6621 13.2516 13.7992 13.0143 14.1995C12.9223 14.3573 12.8863 14.5307 12.9037 14.6994V17.9166C12.9037 18.3764 13.2864 18.7501 13.7587 18.7501C14.2297 18.7501 14.6124 18.3764 14.6124 17.9166V16.0666L16.2479 16.9886C16.658 17.2203 17.1837 17.082 17.4198 16.6817C17.6571 16.2813 17.5167 15.7694 17.1054 15.5389Z" fill="#29B5E8"/>
<path d="M9.84506 12.011C9.85004 11.7137 9.68972 11.4371 9.42626 11.2879L6.50706 9.64288C6.3803 9.5713 6.2349 9.53369 6.0895 9.53369C5.79 9.53369 5.51162 9.69019 5.36249 9.94252C5.13134 10.3332 5.26929 10.8342 5.66945 11.0598L7.35212 12.0073L5.66945 12.956C5.47558 13.0652 5.33639 13.2411 5.27923 13.4522C5.22082 13.6633 5.25065 13.8841 5.36249 14.0733C5.51162 14.3256 5.79 14.4821 6.08825 14.4821C6.2349 14.4821 6.3803 14.4445 6.50706 14.373L9.42626 12.7279C9.68724 12.5799 9.84755 12.3057 9.84506 12.011Z" fill="#29B5E8"/>
<path d="M7.16929 8.47699L10.0885 10.122C10.429 10.3149 10.8491 10.2518 11.1175 9.99586C11.2877 9.843 11.3934 9.62463 11.3934 9.382V6.08465C11.3934 5.62365 11.0106 5.25 10.5396 5.25C10.0674 5.25 9.68461 5.62365 9.68461 6.08465V7.9614L8.02679 7.02727C7.61668 6.79556 7.09224 6.93264 6.85488 7.33298C6.61752 7.73332 6.75919 8.24528 7.16929 8.47699Z" fill="#29B5E8"/>
<path d="M13.7336 12.1442C13.7336 12.2073 13.6963 12.2947 13.6504 12.3408L12.4934 13.4702C12.4474 13.5151 12.3567 13.5515 12.292 13.5515H11.9975C11.9329 13.5515 11.8422 13.5151 11.7962 13.4702L10.638 12.3408C10.592 12.2947 10.5547 12.2073 10.5547 12.1442V11.8567C10.5547 11.7924 10.592 11.7051 10.638 11.6602L11.7962 10.5295C11.8422 10.4846 11.9329 10.4482 11.9975 10.4482H12.292C12.3567 10.4482 12.4474 10.4846 12.4934 10.5295L13.6504 11.6602C13.6963 11.7051 13.7336 11.7924 13.7336 11.8567V12.1442ZM12.7009 12.0059V11.9938C12.7009 11.9477 12.6736 11.8834 12.64 11.8494L12.2983 11.517C12.2647 11.4831 12.1988 11.4564 12.1504 11.4564H12.1379C12.0907 11.4564 12.0249 11.4831 11.9901 11.517L11.6495 11.8494C11.616 11.8822 11.5886 11.9465 11.5886 11.9938V12.0059C11.5886 12.0532 11.616 12.1175 11.6495 12.1503L11.9901 12.4839C12.0249 12.5167 12.0907 12.5434 12.1379 12.5434H12.1504C12.1988 12.5434 12.2647 12.5167 12.2983 12.4839L12.64 12.1503C12.6736 12.1175 12.7009 12.0532 12.7009 12.0059Z" fill="#29B5E8"/>
<path d="M14.1858 10.122L17.105 8.47699C17.5151 8.24649 17.6568 7.73332 17.4194 7.33298C17.1821 6.93264 16.6576 6.79556 16.2475 7.02727L14.6121 7.94927V6.08465C14.6121 5.62365 14.2293 5.25 13.7583 5.25C13.2861 5.25 12.9033 5.62365 12.9033 6.08465V9.31649C12.8872 9.48391 12.9207 9.6586 13.0139 9.81631C13.2513 10.2166 13.7757 10.3537 14.1858 10.122Z" fill="#29B5E8"/>
<path d="M10.6738 13.7955C10.48 13.7591 10.2724 13.7895 10.0885 13.8926L7.16929 15.5388C6.75919 15.7693 6.61752 16.2813 6.85488 16.6816C7.09224 17.0832 7.61668 17.2203 8.02679 16.9885L9.68461 16.0544V17.9166C9.68461 18.3764 10.0674 18.75 10.5396 18.75C11.0106 18.75 11.3934 18.3764 11.3934 17.9166V14.6193C11.3934 14.2031 11.0814 13.8586 10.6738 13.7955Z" fill="#29B5E8"/>
<path d="M18.9296 9.93277C18.6935 9.53122 18.1678 9.39413 17.7577 9.62584L14.8385 11.2709C14.5589 11.4286 14.4048 11.7173 14.4098 12.0109C14.4073 12.3033 14.5614 12.5884 14.8385 12.7436L17.7577 14.3899C18.1678 14.6204 18.6923 14.4833 18.9296 14.083C19.167 13.6826 19.0253 13.1707 18.6152 12.939L16.9624 12.0073L18.6152 11.0756C19.0266 10.8451 19.167 10.3331 18.9296 9.93277Z" fill="#29B5E8"/>
</g>
<defs>
<clipPath id="clip0_5512_1589">
<rect width="15" height="15" fill="white" transform="translate(4.5 4.5)"/>
</clipPath>
</defs>
</svg>
