<svg width="32" height="32" viewBox="0 0 32 32" fill="none" xmlns="http://www.w3.org/2000/svg">
<circle cx="16" cy="16" r="15" fill="#094C5B"/>
<path d="M11.0321 6.90073C11.0321 6.90073 10.9555 7.02244 11.0283 7.2026C11.0723 7.31377 11.2064 7.44793 11.3539 7.58976C11.3539 7.58976 12.9005 9.10007 13.0901 9.31857C13.9473 10.3085 14.3198 11.2831 14.3543 12.6276C14.3753 13.4901 14.2097 14.2491 13.8055 15.1317C13.0815 16.712 11.555 18.4552 9.19914 20.3929L9.5439 20.2779C9.76703 20.1121 10.0687 19.9338 10.7812 19.5438C12.4217 18.6468 14.2633 17.8207 16.5263 16.9698C19.7814 15.746 25.1357 14.3095 28.183 13.8428L28.5 13.7939L28.4521 13.7172C28.1725 13.2841 27.9829 13.0167 27.753 12.733C27.0855 11.906 26.2763 11.2314 25.2851 10.6765C23.9233 9.91272 22.1564 9.31953 19.9222 8.87487C19.2247 8.74363 18.5252 8.62383 17.8239 8.5155C16.5694 8.32297 15.3167 8.11852 14.066 7.90217C13.659 7.8303 13.0509 7.72872 12.6477 7.64151C12.3368 7.57541 12.0296 7.49288 11.7274 7.39427C11.4707 7.29364 11.1097 7.1959 11.0321 6.90073ZM11.9285 7.77184C11.9314 7.76993 11.9888 7.78814 12.0597 7.81209C12.1899 7.85618 12.3623 7.90792 12.5634 7.96447C12.7032 8.0028 12.8574 8.04496 13.0222 8.08617C13.2309 8.13984 13.4043 8.18584 13.4062 8.18871C13.4292 8.21459 13.7806 9.33677 13.9003 9.76706C13.9463 9.93189 13.9808 10.0689 13.9779 10.0718C13.9445 10.0302 13.9156 9.98528 13.8917 9.93764C13.4857 9.22273 12.8412 8.49537 12.097 7.90984C12.0392 7.86592 11.983 7.81989 11.9285 7.77184ZM13.6427 8.24525C13.66 8.24429 13.7375 8.25675 13.8295 8.27783C14.4223 8.40817 15.4814 8.61325 16.1614 8.72824C16.2754 8.74741 16.3682 8.76658 16.3682 8.77328C16.3405 8.7982 16.3088 8.81829 16.2744 8.8327C16.1604 8.8902 15.6979 9.16715 15.5437 9.27065C15.1578 9.5294 14.8101 9.80635 14.5573 10.0574C14.496 10.1204 14.4331 10.1817 14.3686 10.2414C14.3658 10.2414 14.3476 10.182 14.3294 10.1101C14.1667 9.52644 13.9586 8.95641 13.7069 8.40529C13.6816 8.35375 13.6589 8.30098 13.6389 8.24717C13.6389 8.24621 13.6389 8.24525 13.6427 8.24525ZM16.6565 8.81833C16.6757 8.82503 16.714 8.94291 16.78 9.20549C16.9327 9.82465 16.9822 10.4648 16.9266 11.1001L16.9151 11.1365L16.736 11.079C16.3644 10.9602 15.7592 10.7819 15.2401 10.6382C15.059 10.5918 14.8801 10.5374 14.7038 10.4753C14.7038 10.4542 15.1338 10.0239 15.3186 9.86002C15.672 9.5476 16.623 8.80778 16.6565 8.81833ZM16.8959 8.85282C16.9065 8.84324 18.3363 9.09049 18.9856 9.21507C19.4701 9.30803 20.1702 9.45465 20.2123 9.47286C20.2334 9.48052 20.1606 9.52077 19.9279 9.62619C19.0085 10.0402 18.3267 10.412 17.6487 10.8653C17.4705 10.9841 17.3221 11.0819 17.3192 11.0819C17.3154 11.0819 17.3135 10.9822 17.3135 10.8615C17.3135 10.2002 17.1803 9.53227 16.939 8.96782C16.9211 8.93092 16.9067 8.89242 16.8959 8.85282ZM20.5925 9.58498C20.6031 9.59552 20.5561 9.87822 20.5159 10.045C20.3895 10.5625 20.0543 11.3329 19.6406 12.0565C19.5972 12.1381 19.5485 12.2168 19.495 12.2922C19.4222 12.2613 19.3521 12.2245 19.2853 12.182C18.8812 11.9453 18.4234 11.722 17.9206 11.5141C17.8306 11.4787 17.7419 11.4403 17.6544 11.3991C17.6314 11.378 18.749 10.6372 19.3418 10.2817C19.8159 9.99705 20.5791 9.57156 20.5925 9.58498ZM20.8568 9.62619C20.8884 9.62619 21.5224 9.79868 21.8499 9.89739C22.6668 10.1418 23.6092 10.4858 24.2202 10.7637L24.474 10.8787L24.2949 10.9199C22.8 11.2649 21.5176 11.6607 20.2842 12.1619C20.1817 12.2041 20.0926 12.2386 20.0859 12.2386C20.1033 12.177 20.1274 12.1176 20.1577 12.0613C20.5293 11.2726 20.7687 10.4446 20.831 9.74214C20.8367 9.67794 20.8482 9.62619 20.8568 9.62619ZM14.5554 11.0752C14.565 11.0656 15.0476 11.1787 15.311 11.2524C15.7065 11.3636 16.5483 11.6454 16.5483 11.6674C16.5483 11.6712 16.4554 11.7527 16.3424 11.8476C15.8875 12.228 15.4479 12.6267 14.9222 13.1346C14.8275 13.2295 14.7291 13.3206 14.6272 13.4077C14.6205 13.4077 14.6176 13.3857 14.6215 13.3598C14.7009 12.7743 14.6837 12.0229 14.5736 11.2582C14.5627 11.1981 14.5563 11.1372 14.5544 11.0761L14.5554 11.0752ZM24.7162 11.0847C24.723 11.0924 24.4922 11.4537 24.3485 11.6597C24.1378 11.9606 23.8342 12.3555 23.1409 13.2285L22.2273 14.3804C22.1438 14.4887 22.0579 14.5951 21.9697 14.6995C21.9668 14.6995 21.9218 14.6363 21.871 14.5596C21.4796 13.9751 21.0054 13.4505 20.4632 13.0023C20.3783 12.9311 20.2921 12.8615 20.2047 12.7934C20.1788 12.7761 20.1551 12.7558 20.1338 12.733C20.1338 12.7235 20.7247 12.4705 21.1757 12.2865C22.0496 11.935 22.9371 11.6185 23.8362 11.3377C24.2594 11.2084 24.7095 11.079 24.7162 11.0847ZM24.9825 11.1547C25.0523 11.1783 25.1189 11.2105 25.1807 11.2505C26.0251 11.7346 26.8062 12.3218 27.5059 12.9985C27.6917 13.1806 28.1447 13.653 28.138 13.6569L27.7904 13.6847C26.3251 13.7949 24.4519 14.1063 22.6477 14.5404C22.5251 14.5692 22.4198 14.5941 22.4121 14.5941C22.4054 14.5941 22.5395 14.4599 22.7099 14.2951C23.7701 13.2764 24.2527 12.6334 24.8216 11.4834C24.9059 11.3128 24.9777 11.1643 24.9806 11.1557H24.9825V11.1547ZM17.2369 11.9501C17.2857 11.9597 17.7377 12.1705 18.0786 12.3411C18.3899 12.4973 18.862 12.7493 18.886 12.7714C18.8888 12.7743 18.7232 12.8605 18.5163 12.964C17.8622 13.2917 17.302 13.6003 16.7178 13.9578C16.5502 14.0603 16.4113 14.1437 16.4066 14.1437C16.3922 14.1437 16.397 14.1312 16.4908 13.9607C16.8142 13.357 17.0521 12.7113 17.1976 12.0421C17.211 11.9827 17.2263 11.9463 17.2369 11.9491V11.9501ZM16.782 12.0306C16.7915 12.0402 16.6747 12.4714 16.6 12.7014C16.3977 13.3065 16.1295 13.8876 15.8003 14.4341L15.7142 14.5749L15.5198 14.3861C15.3306 14.1932 15.1121 14.0315 14.8724 13.907C14.813 13.8802 14.7566 13.8474 14.7038 13.8092C14.7038 13.7805 15.2976 13.241 15.7553 12.8528C16.0838 12.5749 16.7743 12.022 16.782 12.0306ZM19.5477 13.1691L19.7172 13.2793C20.107 13.5323 20.5676 13.8725 20.9191 14.1648C21.1164 14.3296 21.4985 14.6727 21.577 14.7551L21.6191 14.8001L21.3376 14.8787C19.898 15.2716 18.4761 15.7269 17.076 16.2434C16.916 16.3018 16.7791 16.3507 16.7695 16.3507C16.7494 16.3507 16.7293 16.3689 17.0884 16.0383C18.0078 15.1921 18.8189 14.2596 19.4251 13.3531L19.5477 13.1691ZM18.8208 13.3512C18.8295 13.3598 18.3497 14.0316 18.0652 14.4111C17.7243 14.8643 17.1171 15.6233 16.6996 16.1169C16.593 16.247 16.4825 16.3738 16.3682 16.4973C16.3587 16.5002 16.3539 16.4494 16.3529 16.3699C16.3529 15.9482 16.2457 15.4978 16.058 15.1164C15.9785 14.9554 15.9651 14.9171 15.9813 14.9017C16.0465 14.8423 17.0606 14.2635 17.6994 13.9214C18.139 13.6856 18.8132 13.3425 18.8208 13.3512ZM14.4251 14.4293C14.7034 14.5627 14.9645 14.7294 15.2028 14.9257C15.2104 14.9305 15.1194 15.0052 15.0017 15.0905C14.6713 15.3291 14.1685 15.7077 13.8783 15.9396C13.5719 16.1839 13.5613 16.1916 13.5958 16.1379C13.8256 15.7862 13.9406 15.5879 14.0612 15.333C14.1694 15.1068 14.2757 14.8385 14.3524 14.6046C14.3682 14.5429 14.393 14.4838 14.4261 14.4293H14.4251ZM15.5964 15.3493C15.6126 15.3464 15.6347 15.3761 15.7295 15.517C15.9277 15.814 16.08 16.2089 16.1193 16.5309L16.1269 16.6008L15.651 16.7848C14.7986 17.1164 14.0124 17.4432 13.4809 17.6856C13.3324 17.7546 13.071 17.8792 12.8996 17.9655C12.7281 18.0517 12.5883 18.1188 12.5883 18.115C12.5883 18.1111 12.6956 18.0297 12.8277 17.9348C13.8687 17.1777 14.767 16.3497 15.4441 15.5208C15.5159 15.4326 15.582 15.356 15.5906 15.3502C15.5924 15.3492 15.5943 15.3485 15.5964 15.3483V15.3493ZM15.0562 15.4834C15.0706 15.4968 14.6722 15.9472 14.4041 16.2213C13.7337 16.9065 13.0672 17.4432 12.2436 17.9664C12.1401 18.0325 12.0463 18.091 12.0329 18.0987C12.0109 18.1121 12.0405 18.0776 12.4025 17.6828C12.6305 17.4345 12.8048 17.2285 13.004 16.9707C13.1342 16.8011 13.1591 16.7771 13.3506 16.6391C13.8649 16.2673 15.0428 15.469 15.0562 15.4825V15.4834ZM16.013 4.50015C15.9363 4.49057 14.7 4.93619 13.9061 5.25818C12.8306 5.69613 11.9946 6.11491 11.4793 6.47716C11.2878 6.61132 11.0465 6.85378 11.012 6.94673C10.9984 6.98453 10.9916 7.02444 10.9919 7.06461L11.4592 7.50543L12.5682 7.86001L15.2104 8.33342L18.23 8.85282L18.2606 8.59408L18.2338 8.58929L17.8364 8.52604L17.755 8.38421C17.3445 7.65962 16.9684 6.9161 16.6278 6.15612C16.429 5.69938 16.2595 5.23046 16.1202 4.75219C16.0551 4.51932 16.0484 4.50494 16.013 4.50015ZM15.9545 4.6784H15.9593C15.9622 4.68127 15.9756 4.77902 15.99 4.89402C16.0493 5.38084 16.1585 5.85234 16.329 6.36024C16.4573 6.74357 16.4592 6.72153 16.306 6.67841C15.9517 6.5797 14.36 6.30658 13.2089 6.14654C13.0946 6.13195 12.9806 6.11502 12.867 6.09575C12.8526 6.08137 13.6973 5.63863 14.0718 5.46326C14.5515 5.24093 15.8597 4.69661 15.9545 4.6784ZM12.6008 6.23854L12.7358 6.28454C13.4751 6.53562 15.3273 6.89019 16.351 6.97452C16.4659 6.98411 16.5636 6.99465 16.5665 6.99752C16.5694 7.0004 16.4707 7.05311 16.3481 7.11444C15.8549 7.36168 15.311 7.66355 14.9346 7.8993C14.8245 7.9683 14.7239 8.02388 14.7096 8.02292C14.6551 8.01526 14.6009 8.00663 14.5468 7.99705L14.4089 7.97501L14.0593 7.6348C13.4454 7.04065 12.9666 6.58066 12.7808 6.40816L12.6008 6.23854ZM12.4638 6.34779L12.9532 6.95919C13.2233 7.2946 13.4933 7.62905 13.5527 7.70093C13.613 7.7728 13.659 7.83318 13.6561 7.83509C13.6427 7.84563 12.9475 7.71051 12.5788 7.62522C12.3193 7.57003 12.0626 7.50223 11.8097 7.42206L11.6182 7.36073L11.6192 7.31377C11.622 7.07898 11.918 6.73207 12.4198 6.37845L12.4638 6.34779ZM16.6316 7.18056C16.646 7.18152 16.6623 7.21123 16.7053 7.3061C16.8241 7.56676 17.1938 8.27209 17.2828 8.40817C17.3116 8.45321 17.3594 8.45608 16.8681 8.37654C15.6902 8.1868 15.3081 8.12259 15.3081 8.11492C15.3321 8.09409 15.3588 8.07668 15.3876 8.06317C15.7634 7.85218 16.1183 7.60608 16.4477 7.32814L16.6153 7.18727C16.6211 7.18248 16.6268 7.1796 16.6316 7.18056ZM20.7582 15.2381L16.1537 16.7407L12.1507 18.5098L11.0302 18.8069C10.7448 19.0771 10.4431 19.3512 10.1223 19.631C9.76799 19.9386 9.43664 20.2175 9.18381 20.4187C8.85302 20.6926 8.54756 20.9957 8.27115 21.3244C7.95321 21.7211 7.70421 22.1428 7.59695 22.4676C7.40542 23.0522 7.49831 23.6444 7.86989 24.1907C8.34394 24.8883 9.28724 25.5975 10.3838 26.0805C10.944 26.3258 11.8873 26.644 12.596 26.8222C13.7768 27.1212 16.057 27.4451 17.3135 27.493C17.5682 27.5026 17.9072 27.5026 17.9235 27.4911C17.9503 27.4729 18.1466 27.103 18.3736 26.6382C19.1455 25.0608 19.7038 23.5812 20.0045 22.3181C20.1865 21.5524 20.3282 20.5328 20.4201 19.3234C20.446 18.9841 20.4556 17.8543 20.4355 17.47C20.4116 16.9219 20.3531 16.3758 20.2602 15.8351C20.2481 15.7882 20.2442 15.7396 20.2487 15.6914C20.2621 15.6818 20.3052 15.6674 20.8712 15.5026L20.7582 15.2381ZM19.7048 15.8562C19.7479 15.8562 19.858 16.9238 19.8877 17.6003C19.8934 17.745 19.8925 17.837 19.8838 17.837C19.857 17.837 19.2949 17.5064 18.8955 17.2563C18.5187 17.0187 18.1476 16.7721 17.7827 16.5165C17.7492 16.4896 17.753 16.4887 18.0375 16.3909C18.5211 16.2242 19.6693 15.8562 19.7057 15.8562H19.7048ZM17.3604 16.6257C17.3891 16.6257 17.4705 16.6708 17.6621 16.7906C18.3803 17.241 19.3533 17.7824 19.7689 17.9645C19.8992 18.022 19.9135 17.999 19.6157 18.2012C18.9817 18.6324 18.1926 19.056 17.2244 19.4873C17.1198 19.5351 17.0141 19.5805 16.9074 19.6233C16.9145 19.5582 16.9283 19.494 16.9486 19.4317C17.1832 18.5644 17.3154 17.6875 17.3192 16.9841C17.3211 16.6372 17.3211 16.6353 17.3546 16.6267H17.3604V16.6257ZM16.8777 16.8107C16.8978 16.8318 16.8835 17.6099 16.8586 17.8227C16.7856 18.4216 16.6515 19.0115 16.4583 19.5831C16.4449 19.5994 15.9689 19.1346 15.8109 18.9506C15.5607 18.6667 15.3456 18.3536 15.1702 18.0182C15.0917 17.8629 14.9653 17.5543 14.9768 17.5457C15.0304 17.5074 16.8643 16.7982 16.8777 16.8107ZM14.6033 17.7077C14.6071 17.7077 14.6109 17.7086 14.6128 17.7115C14.6341 17.7518 14.652 17.7938 14.6665 17.837C14.7776 18.1389 15.0266 18.5864 15.243 18.872C15.5266 19.2478 15.8535 19.5887 16.2169 19.8878C16.239 19.907 16.2457 19.9032 15.6787 20.1178C14.9529 20.3917 14.2204 20.6473 13.4818 20.8845C13.1687 20.9861 12.9034 21.0714 12.8929 21.0762C12.8613 21.0867 12.8708 21.0675 12.9628 20.9247C13.3717 20.2865 13.9904 19.0369 14.337 18.1533C14.3964 18 14.4539 17.8466 14.4644 17.8121C14.4788 17.7623 14.4941 17.745 14.541 17.724C14.5603 17.7139 14.5815 17.7083 14.6033 17.7077ZM13.9061 17.9952C13.9157 18.0038 13.7394 18.3766 13.5651 18.7149C13.229 19.3723 12.8574 20.0191 12.3652 20.8088L12.1909 21.0848C12.1737 21.1106 12.166 21.102 12.1124 20.9947C11.9872 20.739 11.897 20.4676 11.8442 20.1878C11.795 19.843 11.8014 19.4926 11.8634 19.1499C11.9084 18.9324 11.9065 18.9372 12.0089 18.8854C12.4514 18.6583 13.8917 17.9827 13.9061 17.9952ZM19.9087 18.2395V18.3871C19.8989 19.3476 19.8173 20.3061 19.6645 21.2544C19.033 21.072 18.4235 20.8207 17.8469 20.505C17.5079 20.3191 17.0185 20.0191 17.0329 20.0048C17.0357 20.0009 17.1804 19.9252 17.3527 19.8351C18.0365 19.4806 18.6887 19.0972 19.2566 18.7177C19.4692 18.5759 19.7881 18.3449 19.8589 18.2827L19.9087 18.2395ZM11.2782 19.2678C11.2926 19.2678 11.2888 19.2946 11.2667 19.4221C11.2478 19.546 11.2347 19.6707 11.2275 19.7958C11.1987 20.3057 11.2821 20.6813 11.5339 21.195C11.6048 21.3387 11.6603 21.4576 11.6575 21.4595C11.6316 21.4815 9.33034 22.1552 8.60634 22.3536L8.18975 22.4686C8.16389 22.4762 8.16198 22.4705 8.1706 22.4111C8.25008 21.9003 8.63986 21.2304 9.18381 20.6669C9.54581 20.2932 9.83503 20.0709 10.3282 19.7901C10.6417 19.6102 10.9584 19.4361 11.2782 19.2678ZM16.7073 20.2405C16.7092 20.2386 16.7944 20.2836 16.8959 20.343C17.64 20.7733 18.6772 21.1768 19.5611 21.379L19.6416 21.3981L19.5314 21.4585C19.0698 21.7153 17.5481 22.3488 15.9938 22.9314C15.8298 22.9928 15.666 23.0547 15.5025 23.1174C15.4777 23.1296 15.4512 23.1383 15.424 23.1432C15.424 23.1394 15.4881 23.0167 15.5667 22.8692C16.0034 22.0527 16.4382 21.0608 16.6623 20.3727C16.6843 20.3028 16.7044 20.2434 16.7073 20.2405ZM16.1537 20.4226C16.1371 20.4778 16.117 20.5319 16.0934 20.5845C15.7401 21.4195 15.3368 22.2323 14.8858 23.0187C14.8092 23.1592 14.7287 23.2976 14.6444 23.4336C14.6397 23.4336 14.5353 23.3704 14.4108 23.2947C13.6734 22.8423 13.0202 22.2865 12.5912 21.7451L12.5299 21.6684L12.8479 21.5812C13.8901 21.3022 14.911 20.949 15.9028 20.5242C16.0388 20.4667 16.1518 20.4197 16.1537 20.4226ZM19.5918 21.6233C19.5927 21.6233 19.5937 21.6243 19.5937 21.6262C19.5937 21.7029 19.4184 22.4197 19.2719 22.9391C19.1493 23.3732 19.0459 23.7134 18.8553 24.3162C18.8067 24.4788 18.7531 24.6399 18.6944 24.7992C17.7114 24.6311 16.7485 24.361 15.8214 23.9933C15.6136 23.9119 15.4094 23.8214 15.2095 23.7221C15.2037 23.7154 15.4134 23.6166 15.6749 23.5016C17.2598 22.8107 18.9013 22.023 19.4625 21.6847C19.5017 21.6569 19.5454 21.6361 19.5918 21.6233ZM11.6556 21.8946C11.6642 21.9032 11.2208 22.5376 10.6021 23.4049L10.04 24.1936C9.94707 24.3268 9.80534 24.5366 9.7249 24.6612L9.57837 24.8874L9.42323 24.7561C9.24031 24.6028 8.92045 24.276 8.77489 24.0948C8.4761 23.7221 8.27403 23.3301 8.19358 22.9698C8.15719 22.803 8.15528 22.7187 8.19071 22.7082C8.80726 22.5593 9.42465 22.414 10.0428 22.2721L11.2878 21.9798C11.488 21.9319 11.6536 21.8936 11.6556 21.8946ZM12.1009 22.0651L12.2129 22.1907C12.6809 22.7223 13.2328 23.1736 13.8467 23.5266C13.9568 23.5898 14.0402 23.6454 14.0334 23.6492C12.6552 24.1492 11.2729 24.638 9.88674 25.1155C9.863 25.1013 9.83999 25.0859 9.81779 25.0695L9.75363 25.0235L9.85418 24.8778C10.1798 24.4053 10.5897 23.8859 11.487 22.8059L12.1009 22.0651ZM14.8781 24.0517C14.881 24.0488 15.0361 24.1035 15.2248 24.1744C15.6778 24.344 16.0331 24.4542 16.5148 24.575C17.1057 24.7235 17.9609 24.872 18.4665 24.9142C18.5431 24.92 18.5833 24.9295 18.5718 24.9372C18.5479 24.9525 18.0355 25.1231 17.6592 25.2419C16.1834 25.6912 14.7034 26.1266 13.2194 26.5481C13.1859 26.5548 13.0691 26.5242 13.0691 26.5098C13.0691 26.5012 13.1524 26.3958 13.2539 26.2741C13.7603 25.6673 14.2322 25.0325 14.6674 24.3728C14.7373 24.2655 14.8075 24.1585 14.8781 24.0517ZM14.2633 24.069C14.2681 24.0738 14.021 24.4695 13.5872 25.1538C13.4033 25.4422 13.1955 25.7719 13.1246 25.884C13.0528 25.9971 12.9484 26.1696 12.8929 26.2673L12.7904 26.4446L12.7387 26.4312C12.6142 26.3977 11.7341 26.0862 11.5023 25.9942C11.2141 25.8792 10.9134 25.7412 10.6921 25.6214C10.4154 25.4719 10.0649 25.2496 10.0917 25.241L11.1499 24.9516C12.6745 24.5357 13.5182 24.2971 14.0708 24.1236C14.1752 24.092 14.2614 24.0671 14.2623 24.069H14.2633ZM18.5948 25.0857H18.6006C18.6149 25.1222 18.0499 26.6861 17.844 27.1825C17.7971 27.2937 17.7808 27.3215 17.7559 27.3196C17.2976 27.2617 16.8402 27.1978 16.3836 27.1279C15.5159 26.9957 14.0631 26.7417 13.6963 26.6583L13.6111 26.6392L14.1311 26.5223C15.2459 26.2712 15.7812 26.1361 16.3242 25.9693C17.0241 25.7538 17.7082 25.4899 18.3717 25.1797C18.4799 25.1298 18.5728 25.0905 18.5948 25.0857Z" fill="#EEEEED"/>
</svg>
