<svg width="24" height="24" viewBox="0 0 24 24" fill="none" xmlns="http://www.w3.org/2000/svg">
<path d="M12 24C18.6274 24 24 18.6274 24 12C24 5.37258 18.6274 0 12 0C5.37258 0 0 5.37258 0 12C0 18.6274 5.37258 24 12 24Z" fill="#1890FF"/>
<g clip-path="url(#clip0_5512_1603)">
<g clip-path="url(#clip1_5512_1603)">
<path d="M6.24763 15.2079L5.53226 16.0971L7.93071 18.4957L8.82083 17.7678C9.25937 18.0103 9.7216 18.2009 10.201 18.3369L10.3237 19.5H12.4395V17.7129H14.3075C14.4895 18.2233 14.9727 18.5918 15.5449 18.5918C16.2719 18.5918 16.8633 18.0004 16.8633 17.2734C16.8633 16.5465 16.2719 15.9551 15.5449 15.9551C14.9727 15.9551 14.4895 16.3236 14.3075 16.834H12.4395V15.9551H12C9.8191 15.9551 8.04492 14.1809 8.04492 12C8.04492 9.8191 9.8191 8.04492 12 8.04492H12.4395V7.16602H14.3075C14.4895 7.67642 14.9727 8.04492 15.5449 8.04492C16.2719 8.04492 16.8633 7.45349 16.8633 6.72656C16.8633 5.99963 16.2719 5.4082 15.5449 5.4082C14.9727 5.4082 14.4895 5.7767 14.3075 6.28711H12.4395V4.5H10.2838L10.1696 5.67256C9.69035 5.81069 9.22893 6.00341 8.79211 6.24763L7.9029 5.53226L5.50353 7.93071L6.23218 8.82083C5.98979 9.25937 5.79925 9.7216 5.66318 10.201L4.5 10.3237V13.7162L5.67256 13.8304C5.81069 14.3098 6.00341 14.7711 6.24763 15.2079V15.2079Z" fill="white"/>
<path d="M18.1816 10.6816C17.6094 10.6816 17.1263 11.0501 16.9442 11.5605H11.1211V12.4395H16.9442C17.1263 12.9499 17.6094 13.3184 18.1816 13.3184C18.9086 13.3184 19.5 12.7269 19.5 12C19.5 11.2731 18.9086 10.6816 18.1816 10.6816Z" fill="white"/>
<path d="M18.2828 7.16981C17.5103 7.11191 16.8633 7.72394 16.8633 8.4844C16.8633 8.5391 16.8729 8.59117 16.8794 8.64416L15.441 9.3633H11.6363C10.1383 9.3633 8.92383 10.5777 8.92383 12.0758C8.92383 13.4902 10.0704 14.6367 11.4848 14.6367H15.441L16.8794 15.3559C16.8729 15.4089 16.8633 15.4609 16.8633 15.5156C16.8633 16.2761 17.5103 16.8881 18.2828 16.8302C18.9274 16.7818 19.4478 16.2615 19.4962 15.6168C19.5541 14.8443 18.9421 14.1973 18.1816 14.1973C17.8271 14.1973 17.5062 14.3395 17.2691 14.568L15.6488 13.7578H11.5605C10.5897 13.7578 9.80273 12.9708 9.80273 12C9.80273 11.0292 10.5897 10.2422 11.5605 10.2422H15.6488L17.2691 9.43208C17.5062 9.66051 17.8271 9.80276 18.1816 9.80276C18.9421 9.80276 19.5541 9.15571 19.4962 8.38323C19.4478 7.73858 18.9274 7.21822 18.2828 7.16981V7.16981Z" fill="white"/>
</g>
</g>
<defs>
<clipPath id="clip0_5512_1603">
<rect width="15" height="15" fill="white" transform="translate(4.5 4.5)"/>
</clipPath>
<clipPath id="clip1_5512_1603">
<rect width="15" height="15" fill="white" transform="translate(4.5 4.5)"/>
</clipPath>
</defs>
</svg>
