<svg width="76" height="22" viewBox="0 0 76 22" fill="none" xmlns="http://www.w3.org/2000/svg">
<path fill-rule="evenodd" clip-rule="evenodd" d="M15.6678 7.92017C18.6264 7.92017 21.0251 10.2841 21.0251 13.2001C21.0251 16.1161 18.6264 18.48 15.6678 18.48C12.7094 18.48 10.3107 16.1161 10.3107 13.2001C10.3107 10.2841 12.7094 7.92017 15.6678 7.92017ZM38.8923 4.39996H42.4636V22H38.8923V21.0581C37.8416 21.657 36.6217 22 35.3209 22C31.3761 22 28.1779 18.8482 28.1779 14.9601V4.39996H31.7493V14.9601C31.7493 16.9041 33.3482 18.4801 35.3209 18.4801C37.2931 18.4801 38.8923 16.9041 38.8923 14.9601V4.39996ZM21.0242 22H24.5956V13.2001V4.39996H21.0242V6.15968C19.5319 5.05486 17.677 4.39996 15.6669 4.39996C10.7358 4.39996 6.73846 8.33979 6.73846 13.2001C6.73846 18.0602 10.7358 22 15.6669 22C17.677 22 19.5319 21.3454 21.0242 20.2403V22ZM55.7656 9.01377C55.1152 8.33979 54.1964 7.92018 53.1781 7.92018C51.2057 7.92018 49.6067 9.49611 49.6067 11.4401V22H46.0353V11.4401V11.4399C46.0353 7.55208 49.2335 4.39996 53.1781 4.39996C54.8547 4.39996 56.3961 4.96963 57.615 5.92256C56.8439 6.84333 56.2163 7.88463 55.7656 9.01377ZM66.5721 7.92017C69.531 7.92017 71.9294 10.2841 71.9294 13.2001C71.9294 16.1161 69.531 18.48 66.5721 18.48C63.6134 18.48 61.215 16.1161 61.215 13.2001C61.215 10.2841 63.6134 7.92017 66.5721 7.92017ZM66.5712 4.39996C71.5025 4.39996 75.4999 8.33979 75.4999 13.2001C75.4999 18.0602 71.5025 22 66.5712 22C61.6401 22 57.6428 18.0602 57.6428 13.2001C57.6428 8.33979 61.6401 4.39996 66.5712 4.39996ZM61.215 1.75998H61.2195H71.9249H71.9294V0H71.9249H61.2195H61.215V1.75998ZM0.500183 22H4.07155V4.39995H0.500183V22Z" fill="#313944"/>
</svg>
